<?xml version="1.0" standalone="no"?>
<!DOCTYPE svg PUBLIC "-//W3C//DTD SVG 20010904//EN"
 "http://www.w3.org/TR/2001/REC-SVG-20010904/DTD/svg10.dtd">
<svg version="1.0" xmlns="http://www.w3.org/2000/svg"
 width="1920.000000pt" height="1080.000000pt" viewBox="0 0 1920.000000 1080.000000"
 preserveAspectRatio="xMidYMid meet">

<g transform="translate(0.000000,1080.000000) scale(0.100000,-0.100000)"
fill="#000000" stroke="none">
<path d="M2 5403 l3 -5398 488 -1 487 0 0 24 c0 14 5 22 12 20 7 -3 13 -13 13
-24 0 -10 8 -20 18 -22 13 -3 17 3 17 28 0 29 1 30 22 19 15 -8 18 -14 10 -17
-10 -3 -10 -7 -1 -18 18 -22 29 -16 29 16 0 22 4 28 15 24 10 -4 15 0 15 15 0
12 -6 21 -15 21 -10 0 -15 10 -15 30 0 20 5 30 15 30 21 0 19 27 -2 39 -16 9
-16 12 -3 21 10 6 11 10 3 10 -7 0 -13 5 -13 10 0 6 7 10 15 10 22 0 19 40 -2
40 -16 1 -16 2 2 17 16 13 17 15 3 10 -13 -5 -18 -1 -18 13 0 11 7 20 15 20
19 0 19 26 0 34 -20 7 -20 56 0 56 8 0 15 9 15 20 0 11 -7 20 -15 20 -21 0
-12 47 12 66 17 13 17 14 -4 20 -27 7 -31 24 -5 24 16 1 16 1 -1 11 -21 12
-23 27 -3 25 8 0 15 2 15 7 3 27 -1 36 -16 40 -17 4 -17 5 0 6 22 1 22 19 0
23 -15 3 -14 6 7 26 l25 23 -23 6 c-12 3 -22 9 -22 14 0 5 7 6 15 3 8 -4 15
-1 15 5 0 6 -6 11 -13 11 -8 0 -14 6 -14 14 0 8 6 12 13 9 15 -6 28 13 14 22
-6 4 -7 11 -4 17 5 7 2 9 -8 6 -12 -5 -14 0 -12 24 2 17 8 36 13 42 4 6 11 24
14 40 4 22 0 30 -14 33 -11 3 -19 9 -19 14 0 5 7 6 16 2 14 -5 16 -2 11 20 -5
16 -2 27 6 30 8 4 4 12 -13 26 -22 18 -23 21 -6 21 20 0 20 0 0 15 -10 8 -14
15 -9 14 25 -3 35 2 35 20 0 11 -4 22 -10 26 -5 3 -7 12 -3 20 3 10 -1 15 -13
15 -16 0 -16 3 6 20 24 19 24 21 7 34 -17 13 -17 14 0 21 16 7 15 9 -7 15
l-25 8 23 7 c26 9 29 32 5 52 -10 8 -12 12 -5 8 7 -4 12 0 12 9 0 9 -4 16 -10
16 -5 0 -10 5 -10 10 0 6 7 10 15 10 25 0 18 38 -8 43 l-22 4 23 2 c27 1 30
21 2 21 -11 0 -20 5 -20 11 0 6 9 8 20 4 16 -5 20 -2 20 19 0 18 -5 26 -17 26
-15 0 -14 2 3 15 19 14 19 14 -1 15 -12 0 -16 3 -9 8 21 13 26 50 8 60 -15 8
-15 10 2 17 18 7 18 8 -1 15 -17 7 -17 9 -2 9 21 1 23 39 2 47 -14 6 -13 8 2
19 15 11 15 13 -7 20 l-25 8 23 8 c28 11 28 35 0 44 l-23 8 23 4 c22 4 23 5 5
18 -17 13 -17 14 0 15 11 0 17 8 17 25 0 19 -5 25 -22 26 -17 1 -19 2 -5 6 9
2 17 12 17 21 0 9 3 27 6 40 5 17 2 22 -12 22 -18 1 -18 1 0 15 20 15 20 15 0
15 -18 1 -18 1 -2 14 25 18 22 45 -4 55 l-22 8 23 6 c13 3 20 10 16 16 -3 6
-10 9 -14 7 -4 -3 -8 1 -8 9 0 8 6 15 14 15 21 0 15 21 -8 27 -21 6 -21 6 -3
21 16 13 17 14 1 9 -21 -8 -23 11 -2 19 19 8 19 40 0 48 -19 7 -19 55 0 62 19
8 19 34 0 34 -18 0 -20 16 -2 23 9 4 9 6 0 6 -7 1 -13 8 -13 17 0 10 6 14 15
10 8 -3 15 -1 15 5 0 5 -6 12 -14 15 -8 3 -17 15 -21 27 l-7 22 -6 -23 c-4
-13 -10 -23 -15 -23 -4 1 -11 1 -16 1 -6 0 -11 21 -13 48 -3 39 -6 46 -22 44
-11 -2 -15 1 -11 7 3 6 2 11 -4 11 -5 0 -12 -6 -14 -12 -4 -8 -6 -7 -6 4 -1 9
3 18 9 20 9 3 0 13 -76 88 -23 23 -26 24 -38 8 -7 -10 -20 -18 -29 -18 -9 0
-17 -10 -19 -22 -4 -30 -34 -35 -41 -8 -3 14 -10 18 -22 14 -9 -4 -14 -13 -11
-21 4 -10 0 -13 -12 -11 -9 2 -16 11 -14 20 1 9 -7 18 -20 22 -34 9 -38 8 -38
-10 0 -8 4 -13 9 -10 5 3 12 -1 15 -10 4 -11 1 -14 -12 -12 -10 2 -18 14 -20
32 -4 31 -17 48 -43 58 -9 4 -19 19 -22 35 -3 15 -10 46 -14 67 -4 22 -14 41
-21 44 -15 5 -16 -20 0 -36 9 -9 8 -12 -5 -12 -12 0 -17 8 -17 30 0 23 4 30
20 30 15 0 23 11 32 44 6 25 15 43 18 41 4 -2 22 11 40 30 26 27 43 35 87 41
30 3 60 13 68 20 21 22 30 16 10 -6 -20 -22 -22 -21 40 -24 11 -1 19 -6 18
-13 -3 -13 43 -53 61 -53 14 0 20 -129 8 -174 -8 -28 -6 -38 15 -65 13 -17 31
-31 38 -31 8 0 17 -9 20 -20 4 -13 15 -20 32 -20 19 0 24 -4 19 -16 -8 -22 23
-44 51 -37 19 4 23 1 23 -18 0 -13 5 -31 10 -39 10 -16 11 -13 14 32 0 14 9
24 20 26 11 3 16 0 12 -7 -4 -6 -1 -11 7 -11 17 0 87 69 87 87 0 7 16 19 36
28 28 12 34 19 29 34 -5 16 -2 19 14 16 12 -2 21 0 21 6 0 5 -9 9 -20 9 -11 0
-20 5 -20 10 0 6 7 10 15 10 17 0 20 21 5 36 -15 15 -23 64 -10 64 14 0 13 33
-2 49 -10 11 -10 13 -1 7 7 -4 18 -4 25 0 8 5 6 10 -8 15 -17 7 -17 8 4 8 25
1 66 37 57 51 -4 6 1 7 11 3 10 -4 22 1 30 12 8 11 21 16 34 12 11 -3 27 1 34
9 19 18 32 18 40 -1 6 -17 37 -21 34 -4 -2 6 3 14 11 17 10 3 12 0 8 -12 -7
-18 14 -46 48 -64 13 -6 28 -33 39 -67 14 -47 20 -54 32 -44 10 8 14 8 14 0 0
-6 -6 -14 -14 -17 -7 -3 -22 -30 -32 -60 -13 -38 -27 -61 -46 -72 -14 -8 -32
-26 -39 -39 -8 -15 -16 -20 -22 -14 -13 13 -37 2 -37 -18 0 -14 -2 -14 -10 -1
-9 13 -11 13 -20 0 -8 -13 -10 -13 -10 2 0 21 -41 19 -48 -2 -3 -9 1 -11 14
-6 15 5 16 4 7 -5 -15 -15 -33 -3 -33 21 0 11 -11 27 -25 36 -25 16 -27 16
-50 -6 -14 -13 -25 -32 -25 -43 0 -14 -5 -18 -18 -15 -23 6 -46 -18 -37 -40 3
-9 3 -13 -1 -9 -10 9 -64 -31 -64 -49 0 -8 -6 -14 -13 -14 -20 0 -59 -49 -50
-63 11 -18 11 -51 1 -58 -6 -4 -6 -20 0 -43 7 -23 7 -38 0 -42 -5 -3 -8 -28
-5 -55 2 -28 1 -52 -2 -54 -6 -3 -5 -196 1 -245 2 -14 -1 -28 -6 -31 -5 -4 -4
-20 2 -39 8 -21 8 -38 2 -50 -6 -11 -6 -30 0 -49 5 -17 9 -34 10 -38 1 -3 -4
-9 -10 -13 -9 -6 -10 -16 -3 -36 6 -17 7 -39 2 -52 -5 -12 -5 -32 0 -45 5 -12
4 -33 0 -46 -5 -13 -6 -33 -2 -45 9 -28 10 -49 2 -61 -4 -5 -4 -29 0 -52 5
-23 5 -44 0 -45 -4 -2 -4 -22 0 -46 5 -23 6 -44 2 -46 -8 -5 -5 -131 3 -145 4
-6 2 -20 -4 -32 -6 -11 -8 -28 -4 -37 12 -26 13 -56 3 -68 -5 -6 -7 -18 -5
-25 3 -8 7 -33 10 -56 2 -23 8 -47 12 -54 4 -8 3 -9 -4 -5 -8 5 -12 0 -12 -13
0 -11 5 -23 10 -26 7 -4 7 -13 0 -26 -6 -10 -7 -19 -3 -19 4 0 2 -5 -5 -12 -9
-9 -8 -16 6 -32 10 -12 12 -16 3 -11 -11 6 -13 4 -8 -9 4 -10 2 -26 -3 -36 -7
-12 -7 -34 -1 -60 5 -25 5 -42 -1 -46 -5 -3 -5 -11 -1 -17 5 -7 8 -56 7 -109
-1 -56 2 -95 7 -92 5 3 9 1 9 -5 0 -5 -5 -13 -11 -16 -6 -4 -8 -13 -5 -21 3
-7 1 -16 -3 -19 -5 -3 -7 -14 -4 -25 3 -11 8 -18 12 -15 9 5 7 -32 -2 -41 -10
-10 -9 -44 1 -44 10 0 8 -39 -3 -63 -4 -11 -3 -23 3 -29 8 -8 8 -17 1 -30 -13
-23 7 -33 42 -19 17 7 19 10 7 10 -20 1 -25 21 -5 21 8 0 7 4 -3 10 -13 8 -12
10 3 10 12 0 20 -10 24 -30 l6 -30 1074 0 c591 1 1081 4 1089 7 13 5 13 7 2
14 -11 8 -11 10 1 18 11 7 11 9 0 14 -10 4 -8 6 4 6 14 1 17 8 13 39 -6 50 -7
51 -15 22 l-7 -25 -6 24 c-5 18 -2 24 13 28 23 6 25 31 4 39 -21 8 -20 64 1
64 10 0 14 7 12 18 -2 9 -9 16 -15 15 -6 -1 -13 9 -16 24 -3 19 0 27 14 30 22
6 26 33 4 33 -10 0 -15 11 -15 35 0 22 4 34 12 33 7 -2 14 7 16 20 2 14 -2 22
-11 22 -8 0 -17 7 -21 15 -3 8 -10 15 -16 15 -5 0 -10 -7 -10 -15 0 -8 -9 -15
-20 -15 -11 0 -20 7 -20 15 0 10 -9 15 -27 14 -17 -1 -21 -3 -10 -6 28 -7 21
-34 -8 -29 -27 5 -36 -11 -37 -65 -1 -34 -21 -48 -42 -30 -8 7 -17 8 -20 3 -3
-5 -26 -15 -51 -22 -41 -12 -44 -14 -28 -27 17 -14 17 -14 1 -9 -10 3 -18 2
-18 -3 0 -5 10 -12 23 -16 l22 -7 -25 -7 c-23 -6 -25 -4 -28 25 -3 28 -7 32
-42 37 -21 3 -52 12 -69 20 -20 10 -33 11 -40 4 -19 -19 -41 0 -37 34 2 18 -2
46 -10 63 -7 17 -13 25 -14 19 0 -21 -37 -15 -43 6 -6 23 0 31 24 31 9 0 19 8
21 18 4 14 0 18 -16 18 -17 -1 -21 5 -21 29 0 37 26 41 35 5 l6 -25 8 25 c5
14 18 35 29 47 l20 23 -20 0 c-27 0 -26 43 1 48 15 3 18 0 13 -17 -6 -25 17
-29 31 -5 5 9 24 18 43 20 40 5 59 21 36 30 -24 9 -24 74 1 75 15 0 15 1 -2 8
-15 6 -19 17 -18 57 0 72 1 76 12 69 18 -11 24 27 7 40 -21 15 -22 44 -2 51
19 8 19 30 0 38 -20 7 -20 56 0 56 22 0 20 50 -2 51 -15 0 -15 2 2 9 17 7 17
9 3 9 -22 1 -24 17 -3 25 20 7 19 26 -2 42 -16 13 -17 15 -2 24 13 7 16 28 17
95 1 56 -2 85 -10 85 -7 0 -7 4 -1 13 16 19 14 147 -2 153 -7 3 -16 15 -19 27
-6 23 11 50 25 41 10 -6 39 19 39 34 0 17 33 9 38 -10 4 -16 18 -18 163 -18
146 0 180 6 149 25 -8 5 -7 11 1 21 6 8 8 14 3 15 -12 1 28 17 44 18 10 1 13
-10 10 -36 l-3 -38 177 -3 176 -2 0 36 c0 20 5 40 12 44 7 4 9 16 5 29 -5 16
-3 20 9 15 10 -4 17 2 22 20 8 32 54 62 54 35 0 -5 -4 -7 -10 -4 -5 3 -10 1
-10 -4 0 -6 4 -11 10 -11 5 0 1 -16 -10 -35 -24 -42 -25 -59 -5 -51 9 3 15 0
15 -10 0 -10 -6 -13 -18 -10 -11 4 -19 1 -19 -6 0 -7 -2 -20 -4 -28 -3 -13 18
-15 139 -18 92 -2 142 1 142 8 0 5 -4 10 -10 10 -5 0 -10 5 -10 10 0 6 10 8
24 4 13 -3 27 -1 31 5 3 6 11 8 17 5 7 -5 9 -1 5 9 -3 9 -2 19 3 22 6 4 10 -3
10 -14 0 -19 17 -26 51 -23 3 1 6 -26 6 -58 0 -33 -2 -59 -6 -58 -29 3 -31 -5
-31 -151 l0 -149 37 9 c21 4 39 13 41 18 2 6 13 9 25 6 15 -4 31 3 49 20 15
13 29 21 33 16 3 -5 1 -12 -4 -16 -6 -3 -8 -11 -5 -19 3 -8 -11 -20 -36 -31
-26 -12 -39 -23 -36 -32 3 -7 -1 -13 -8 -13 -8 0 -16 6 -19 13 -4 9 -7 9 -18
0 -7 -7 -23 -13 -36 -13 -22 0 -23 -3 -23 -80 l0 -80 119 0 c77 0 122 -4 127
-11 5 -8 9 -7 14 1 11 19 40 4 40 -20 0 -22 -35 -29 -43 -7 -4 9 -8 9 -14 1
-8 -11 -50 -15 -185 -16 -46 -1 -58 -4 -59 -17 -1 -9 -2 -29 -3 -46 -2 -39
-13 -56 -31 -48 -11 3 -15 21 -15 58 l0 52 -90 -2 c-50 0 -96 2 -102 6 -7 4
-18 3 -25 -2 -8 -7 -18 -7 -32 0 -14 8 -22 8 -27 0 -3 -6 -15 -8 -27 -5 -11 3
-33 2 -48 -1 -23 -4 -31 -14 -41 -45 -6 -22 -24 -48 -40 -59 -15 -11 -28 -27
-28 -35 0 -9 -5 -12 -12 -8 -7 5 -8 3 -3 -6 16 -27 14 -56 -6 -56 -17 0 -17 1
-2 19 16 17 16 17 -2 11 -15 -6 -17 -4 -12 9 9 23 -29 23 -43 0 -9 -17 -11
-17 -21 0 -13 23 -29 13 -29 -19 0 -18 -4 -23 -12 -18 -9 5 -9 2 1 -9 12 -15
11 -17 -5 -18 -18 0 -18 -1 1 -9 20 -8 20 -9 -1 -9 -19 -1 -21 4 -20 51 1 33
-3 53 -11 55 -9 3 -13 -7 -13 -31 0 -29 -3 -34 -17 -30 -17 5 -17 5 0 -9 22
-19 22 -37 -2 -37 -16 0 -18 8 -17 63 2 58 -6 87 -24 87 -4 0 -7 -50 -6 -111
1 -61 -1 -112 -5 -114 -5 -3 -4 -70 1 -70 1 0 3 -26 4 -58 4 -88 26 -92 35 -5
1 10 31 -2 31 -13 0 -4 -8 -6 -17 -3 -17 5 -17 5 0 -6 9 -6 17 -18 17 -26 0
-12 7 -14 31 -9 20 5 29 3 25 -3 -7 -12 26 -11 35 2 4 5 13 6 20 4 8 -3 0 -10
-18 -18 -18 -8 -29 -19 -26 -27 4 -9 -5 -13 -31 -13 -28 0 -36 -4 -36 -18 0
-11 -7 -18 -20 -18 -13 0 -20 7 -20 19 0 10 -5 17 -12 15 -10 -4 -13 -53 -14
-201 0 -108 -3 -200 -7 -203 -3 -3 -1 -17 4 -31 5 -14 7 -28 4 -33 -3 -4 -2
-15 1 -24 5 -14 443 -16 4810 -16 l4804 0 0 427 c0 234 -3 423 -7 420 -8 -9
-33 40 -33 64 0 11 5 19 10 19 6 0 10 6 10 14 0 17 31 29 53 21 8 -4 18 -16
21 -28 3 -13 9 -18 13 -12 14 18 103 12 114 -7 12 -22 -3 -31 -39 -24 -18 4
-38 -1 -60 -14 l-33 -20 2 -429 1 -429 49 0 c27 0 46 4 44 8 -3 5 -1 12 5 15
6 4 9 1 8 -7 -2 -10 45 -13 242 -14 135 -1 252 2 260 7 12 7 11 8 -5 9 -14 0
-16 3 -8 11 13 13 33 4 33 -16 0 -12 138 -14 920 -15 l920 0 0 79 c0 79 1 81
37 116 20 19 41 36 47 36 91 10 944 11 2394 2 l1062 -6 0 5287 0 5286 -9600 0
-9600 0 2 -5397z m8671 5283 c49 -1 90 1 93 6 3 4 14 3 25 -3 15 -8 24 -7 35
2 12 10 20 10 34 2 13 -9 20 -9 29 0 9 9 16 9 30 0 10 -7 22 -9 26 -5 10 10
105 10 111 0 3 -5 12 -4 19 2 10 8 20 8 33 1 13 -7 22 -7 31 2 9 9 16 8 33 -2
11 -7 23 -9 27 -4 7 10 22 10 38 0 7 -4 22 -3 34 4 16 8 23 8 29 0 5 -8 14 -9
32 -2 17 6 29 6 36 -1 8 -8 15 -8 27 2 9 8 20 9 28 3 14 -10 152 -10 215 1 29
5 42 4 42 -3 0 -8 6 -9 18 -2 28 14 45 -12 21 -32 -10 -9 -19 -14 -19 -11 0 3
-12 -4 -27 -16 -18 -14 -30 -17 -37 -10 -12 12 -102 13 -395 3 -164 -5 -211
-9 -207 -19 3 -7 -2 -15 -10 -18 -11 -4 -14 -1 -10 12 4 13 0 18 -14 19 -16 1
-20 -3 -15 -16 3 -12 0 -21 -10 -25 -19 -7 -33 23 -15 34 7 5 2 8 -14 8 -20 0
-25 -5 -21 -17 4 -12 -2 -17 -20 -19 -14 -1 -25 3 -25 8 0 6 5 10 10 10 6 0
10 4 10 8 0 4 -9 8 -20 8 -13 0 -20 -7 -20 -18 0 -11 -7 -18 -20 -18 -11 0
-20 5 -20 10 0 6 7 10 15 10 8 0 15 4 15 9 0 5 -13 8 -28 8 -24 -1 -28 -5 -25
-27 2 -14 1 -20 -3 -13 -3 7 -12 9 -20 6 -16 -6 -19 8 -3 24 7 7 3 11 -16 11
-18 0 -25 -5 -21 -14 3 -8 4 -14 2 -14 -3 0 -11 -3 -20 -6 -10 -4 -16 -1 -16
9 0 8 6 18 13 20 6 3 -15 6 -48 6 -59 1 -61 0 -60 -26 0 -14 -7 -28 -15 -31
-13 -5 -13 -3 0 12 13 16 12 18 -10 14 -16 -2 -26 -11 -30 -28 -8 -36 -44 -34
-48 3 -3 22 -8 27 -30 27 -19 0 -23 3 -13 9 10 6 11 13 2 29 -15 29 -15 30 22
53 23 14 41 18 67 14 19 -3 75 -7 123 -9z m-6 -92 c2 -5 -6 -10 -17 -11 -20
-2 -26 8 -13 21 9 8 26 3 30 -10z m443 -4 c0 -5 -7 -10 -15 -10 -8 0 -15 5
-15 10 0 6 7 10 15 10 8 0 15 -4 15 -10z m57 4 c-3 -3 -12 -4 -19 -1 -8 3 -5
6 6 6 11 1 17 -2 13 -5z m133 2 c0 -11 -19 -15 -25 -6 -3 5 1 10 9 10 9 0 16
-2 16 -4z m57 -2 c-3 -3 -12 -4 -19 -1 -8 3 -5 6 6 6 11 1 17 -2 13 -5z m3213
-109 c0 -28 31 -26 -320 -29 -139 -1 -190 -5 -207 -16 -41 -26 -67 33 -28 65
7 6 113 9 283 7 l272 -3 0 -24z m60 0 c0 -18 -5 -25 -20 -25 -35 0 -24 45 13
49 4 1 7 -10 7 -24z m60 2 c0 -16 -6 -23 -20 -23 -19 0 -28 25 -13 39 14 15
33 6 33 -16z m58 1 c2 -9 -6 -18 -17 -21 -17 -4 -19 -2 -11 13 5 9 6 21 2 25
-4 4 0 6 8 3 8 -3 16 -12 18 -20z m59 16 c-3 -3 -12 -4 -19 -1 -8 3 -5 6 6 6
11 1 17 -2 13 -5z m3 -24 c0 -5 -7 -10 -15 -10 -8 0 -15 5 -15 10 0 6 7 10 15
10 8 0 15 -4 15 -10z m59 -4 c10 -12 8 -13 -8 -9 -12 3 -21 9 -21 14 0 14 16
11 29 -5z m71 -1 c0 -9 -6 -12 -15 -9 -8 4 -15 10 -15 15 0 5 7 9 15 9 8 0 15
-7 15 -15z m55 5 c3 -5 -1 -10 -10 -10 -9 0 -13 5 -10 10 3 6 8 10 10 10 2 0
7 -4 10 -10z m65 0 c0 -5 -4 -10 -9 -10 -6 0 -13 5 -16 10 -3 6 1 10 9 10 9 0
16 -4 16 -10z m-6406 -374 c-6 -15 -24 -23 -24 -11 0 8 24 34 28 30 1 -1 0
-10 -4 -19z m5691 3 c148 -2 164 -5 138 -25 -14 -10 -67 -13 -225 -14 -131 0
-208 -4 -209 -10 -1 -5 -2 -16 -3 -22 -2 -19 -27 -16 -39 4 -8 12 -7 24 2 42
16 28 40 33 141 30 36 -1 124 -4 195 -5z m-5815 -9 c0 -5 -4 -10 -10 -10 -5 0
-10 5 -10 10 0 6 5 10 10 10 6 0 10 -4 10 -10z m6018 -16 c-9 -9 -21 -13 -28
-9 -14 9 5 25 30 25 12 0 12 -3 -2 -16z m-5891 -70 c-3 -3 -12 -4 -19 -1 -8 3
-5 6 6 6 11 1 17 -2 13 -5z m-55 -299 c0 -6 -8 -14 -17 -20 -18 -11 -37 9 -28
31 5 14 44 4 45 -11z m62 0 c3 -8 1 -15 -4 -15 -6 0 -10 6 -10 13 0 8 -4 7
-10 -3 -5 -8 -10 -10 -10 -4 0 25 25 32 34 9z m-124 -7 c0 -4 -9 -8 -20 -8
-11 0 -20 4 -20 8 0 4 9 8 20 8 11 0 20 -4 20 -8z m5750 -20 c0 -5 11 -8 25
-8 14 0 25 -4 25 -10 0 -9 -118 -17 -160 -11 -19 3 -26 2 -75 -3 -22 -3 -43
-5 -46 -5 -4 -1 -10 -12 -13 -26 -8 -30 -22 -32 -36 -5 -15 28 3 57 43 69 37
11 237 10 237 -1z m80 -18 c0 -5 -4 -10 -10 -10 -5 0 -10 5 -10 10 0 6 5 10
10 10 6 0 10 -4 10 -10z m25 0 c3 -5 1 -10 -4 -10 -6 0 -11 5 -11 10 0 6 2 10
4 10 3 0 8 -4 11 -10z m-5860 -20 c3 -5 -1 -10 -10 -10 -9 0 -13 5 -10 10 3 6
8 10 10 10 2 0 7 -4 10 -10z m108 -15 c-7 -21 -13 -19 -13 6 0 11 4 18 10 14
5 -3 7 -12 3 -20z m14 -299 c-4 -9 -13 -13 -22 -10 -8 3 -12 10 -9 15 3 5 10
7 15 4 5 -4 9 -1 9 6 0 7 3 10 6 6 4 -3 4 -13 1 -21z m-118 -16 c-16 -11 -29
-4 -29 16 0 12 4 13 21 3 17 -9 19 -13 8 -19z m66 10 c4 -6 -5 -10 -20 -10
-15 0 -24 4 -20 10 3 6 12 10 20 10 8 0 17 -4 20 -10z m5468 -4 c15 3 27 3 27
0 0 -11 -35 -46 -46 -46 -7 0 -15 -6 -18 -12 -4 -7 -4 -3 -2 10 4 19 2 21 -10
11 -23 -19 -28 -2 -9 27 12 18 20 23 25 15 4 -8 17 -10 33 -5z m274 -11 c0
-18 -23 -20 -33 -3 -4 7 -3 8 4 4 7 -4 12 -2 12 3 0 6 4 11 8 11 5 0 9 -7 9
-15z m-207 -9 c0 -8 -7 -16 -15 -20 -17 -6 -18 -4 -9 18 8 20 24 21 24 2z m83
7 c-7 -2 -21 -2 -30 0 -10 3 -4 5 12 5 17 0 24 -2 18 -5z m67 3 c0 -9 -30 -14
-35 -6 -4 6 3 10 14 10 12 0 21 -2 21 -4z m100 -10 c0 -2 -7 -7 -16 -10 -8 -3
-12 -2 -9 4 6 10 25 14 25 6z m-183 -12 c-3 -3 -12 -4 -19 -1 -8 3 -5 6 6 6
11 1 17 -2 13 -5z m-5603 -39 c4 -11 -2 -15 -22 -14 -15 0 -21 3 -14 6 6 2 10
9 6 14 -3 5 1 9 9 9 8 0 17 -7 21 -15z m-64 -15 c0 -5 -10 -10 -22 -10 -19 0
-20 2 -8 10 19 13 30 13 30 0z m187 -106 c-3 -3 -12 -4 -19 -1 -8 3 -5 6 6 6
11 1 17 -2 13 -5z m-7 -114 c0 -5 -4 -10 -10 -10 -5 0 -10 5 -10 10 0 6 5 10
10 10 6 0 10 -4 10 -10z m-124 -95 c1 -9 -6 -15 -19 -15 -18 0 -19 2 -7 10 8
5 11 10 7 10 -5 0 -5 5 -2 11 8 12 18 5 21 -16z m56 13 c-9 -9 -15 -9 -24 0
-9 9 -7 12 12 12 19 0 21 -3 12 -12z m-114 -9 c-2 -6 -8 -10 -13 -10 -5 0 -11
4 -13 10 -2 6 4 11 13 11 9 0 15 -5 13 -11z m5537 -9 c-3 -5 -11 -10 -16 -10
-6 0 -7 5 -4 10 3 6 11 10 16 10 6 0 7 -4 4 -10z m-5475 -64 c0 -2 -9 -6 -20
-9 -11 -3 -18 -1 -14 4 5 9 34 13 34 5z m-85 -16 c3 -5 1 -10 -4 -10 -6 0 -11
5 -11 10 0 6 2 10 4 10 3 0 8 -4 11 -10z m145 -12 c0 -4 -4 -8 -9 -8 -6 0 -12
4 -15 8 -3 5 1 9 9 9 8 0 15 -4 15 -9z m0 -268 c0 -5 -8 -10 -17 -10 -15 0
-16 2 -3 10 19 12 20 12 20 0z m5440 -422 c0 -4 -7 -8 -15 -8 -8 0 -15 -4 -15
-10 0 -5 -5 -10 -11 -10 -5 0 -7 5 -4 10 3 6 -1 10 -9 10 -9 0 -16 4 -16 10 0
5 16 9 35 8 19 -1 35 -5 35 -10z m65 2 c3 -5 1 -10 -4 -10 -6 0 -11 5 -11 10
0 6 2 10 4 10 3 0 8 -4 11 -10z m-2827 -208 c9 9 12 9 12 1 0 -7 -5 -15 -12
-19 -15 -9 -188 -15 -188 -6 0 4 5 14 10 22 9 13 11 13 20 0 6 -10 10 -11 10
-2 0 6 11 12 25 12 14 0 25 -4 25 -10 0 -5 5 -10 11 -10 5 0 8 4 4 9 -8 15 49
18 61 4 8 -9 13 -10 22 -1z m-726 -20 c-3 -10 -7 -12 -10 -4 -2 7 -13 2 -28
-13 -14 -14 -33 -25 -42 -25 -12 1 -8 5 11 16 24 13 31 24 29 45 -1 3 10 4 23
1 17 -3 22 -9 17 -20z m43 10 c-3 -3 -11 0 -18 7 -9 10 -8 11 6 5 10 -3 15 -9
12 -12z m425 3 c0 -8 -4 -15 -8 -15 -5 0 -9 7 -9 15 0 8 4 15 9 15 4 0 8 -7 8
-15z m30 -7 c0 -18 -2 -20 -9 -8 -6 8 -7 18 -5 22 9 14 14 9 14 -14z m35 3
c-3 -6 -11 -11 -16 -11 -5 0 -4 6 3 14 14 16 24 13 13 -3z m240 10 c3 -5 1
-12 -5 -16 -5 -3 -10 1 -10 9 0 18 6 21 15 7z m28 -11 c-3 -11 -7 -20 -9 -20
-2 0 -4 9 -4 20 0 11 4 20 9 20 5 0 7 -9 4 -20z m67 10 c0 -5 -4 -10 -9 -10
-5 0 -16 -3 -25 -6 -11 -4 -16 -1 -16 10 0 10 9 16 25 16 14 0 25 -4 25 -10z
m-5205 -1811 c-4 -5 -14 -9 -25 -9 -26 0 -101 -42 -108 -60 -3 -8 -11 -18 -18
-23 -7 -4 -16 -23 -20 -42 -5 -27 0 -45 26 -90 20 -35 38 -55 50 -55 9 0 23
-7 30 -15 21 -25 30 -17 30 29 0 42 -14 69 -40 78 -8 2 -8 11 -1 31 13 33 36
59 45 50 3 -4 6 -1 6 5 0 18 24 14 52 -8 23 -17 44 -80 28 -80 -3 0 -16 -9
-28 -20 -23 -22 -32 -90 -12 -90 25 0 78 30 98 55 12 15 22 22 22 15 0 -10 3
-10 15 0 8 7 15 8 15 2 0 -13 -25 -33 -32 -26 -3 3 -5 -2 -4 -12 0 -9 -12 -25
-29 -35 -57 -35 -108 -58 -115 -54 -5 3 -6 -5 -4 -17 3 -17 1 -16 -7 5 -6 15
-18 27 -27 27 -30 0 -98 42 -120 74 -28 42 -36 115 -15 138 9 10 13 21 10 24
-7 8 30 64 42 64 5 0 26 7 46 16 27 11 34 18 26 24 -8 4 3 8 28 8 23 1 39 -3
36 -9z m47 4 c-10 -4 -10 -8 -1 -19 10 -12 9 -13 -4 -8 -26 10 -29 34 -4 33
12 0 16 -3 9 -6z m77 -52 c7 -5 10 -14 7 -20 -4 -6 -4 -11 1 -10 34 6 46 -15
14 -24 -24 -6 -46 7 -37 22 4 6 3 11 -2 11 -6 0 -12 7 -16 15 -6 17 11 20 33
6z m2365 -37 c3 -8 2 -12 -4 -9 -6 3 -10 10 -10 16 0 14 7 11 14 -7z m-2320
-39 c3 -8 3 -22 0 -30 -4 -8 -1 -15 5 -15 6 0 11 -4 11 -10 0 -5 -7 -10 -15
-10 -8 0 -15 -4 -15 -10 0 -5 -5 -10 -10 -10 -7 0 -7 7 -2 18 5 9 8 32 7 50
-3 33 8 43 19 17z m2156 -13 c0 -5 -7 -17 -15 -28 -14 -19 -14 -19 -15 2 0 11
3 24 7 27 9 10 23 9 23 -1z m43 -9 c-5 -12 -3 -14 7 -8 8 5 11 3 9 -4 -7 -21
-24 -17 -27 7 -2 12 1 22 7 22 6 0 7 -7 4 -17z m135 4 c13 5 14 3 5 -7 -13
-14 -33 -5 -32 13 0 9 2 9 5 0 3 -7 13 -9 22 -6z m-192 -104 c-10 -10 -19 5
-10 18 6 11 8 11 12 0 2 -7 1 -15 -2 -18z m184 17 c0 -5 -5 -10 -11 -10 -5 0
-7 5 -4 10 3 6 8 10 11 10 2 0 4 -4 4 -10z m-310 -15 c0 -8 0 -18 -1 -21 0 -4
5 -11 13 -15 9 -6 9 -9 1 -9 -6 0 -15 6 -20 13 -12 19 -14 47 -3 47 6 0 10 -7
10 -15z m264 -29 c-7 -28 -34 -36 -34 -11 0 8 7 15 15 15 8 0 14 3 14 8 -3 14
1 25 6 20 4 -3 3 -17 -1 -32z m-201 -13 c3 -5 -1 -14 -9 -21 -12 -11 -14 -9
-14 8 0 20 14 27 23 13z m77 -28 c0 -5 -5 -3 -10 5 -5 8 -10 20 -10 25 0 6 5
3 10 -5 5 -8 10 -19 10 -25z m70 10 c0 -16 -34 -38 -43 -28 -10 9 12 43 28 43
8 0 15 -7 15 -15z m-78 -77 c-6 -6 -15 -8 -19 -4 -4 4 -1 11 7 16 19 12 27 3
12 -12z m7728 -596 c0 -15 -2 -15 -10 -2 -13 20 -13 33 0 25 6 -3 10 -14 10
-23z m-2 -67 c1 -14 -3 -25 -9 -25 -5 0 -7 5 -4 10 3 6 1 10 -6 10 -8 0 -8 4
1 15 16 19 15 19 18 -10z m-118 5 c0 -5 -2 -10 -4 -10 -3 0 -8 5 -11 10 -3 6
-1 10 4 10 6 0 11 -4 11 -10z m0 -30 c0 -5 -2 -10 -4 -10 -3 0 -8 5 -11 10 -3
6 -1 10 4 10 6 0 11 -4 11 -10z m35 1 c3 -5 1 -12 -4 -15 -5 -3 -11 1 -15 9
-6 16 9 21 19 6z m55 -56 c0 -5 -5 -3 -10 5 -5 8 -10 20 -10 25 0 6 5 3 10 -5
5 -8 10 -19 10 -25z m35 -28 c-4 -39 -5 -40 -12 -33 -5 4 -8 23 -8 41 -1 25 2
31 11 24 6 -5 10 -19 9 -32z m2 -92 c0 -8 -8 -15 -18 -15 -12 0 -16 6 -12 19
6 22 30 18 30 -4z m0 -92 c2 -19 -3 -33 -11 -36 -9 -4 -13 6 -13 34 0 47 20
48 24 2z m20 -15 c-3 -7 -5 -2 -5 12 0 14 2 19 5 13 2 -7 2 -19 0 -25z m-1
-60 c4 -6 2 -14 -5 -16 -11 -4 -11 -6 0 -13 11 -7 9 -9 -6 -9 -16 0 -17 -2 -5
-10 12 -7 12 -12 2 -22 -10 -10 -14 -8 -18 10 -4 12 -10 22 -14 22 -4 0 -5 11
-2 25 5 27 35 35 48 13z m2 -99 c3 -11 1 -11 -7 1 -6 8 -11 11 -12 5 0 -5 -2
-21 -3 -34 -3 -23 -2 -23 12 -5 14 18 14 18 7 -1 -16 -41 -18 -77 -4 -86 11
-7 10 -9 -3 -9 -10 0 -18 -5 -18 -10 0 -6 -6 -5 -14 2 -9 9 -11 21 -5 41 4 15
5 48 2 73 -5 42 -4 44 18 41 13 -2 25 -10 27 -18z m7 -88 c3 -5 1 -12 -5 -16
-5 -3 -10 1 -10 9 0 18 6 21 15 7z m-6 -116 c1 -25 -3 -30 -24 -31 -22 -2 -25
2 -25 29 0 17 8 38 18 47 15 15 18 16 24 1 4 -9 7 -29 7 -46z m-24 -94 c-3
-12 -11 -21 -16 -21 -10 0 -12 43 -2 54 12 12 25 -11 18 -33z m25 -5 c0 -3 -4
-8 -10 -11 -5 -3 -10 -1 -10 4 0 6 5 11 10 11 6 0 10 -2 10 -4z m-25 -66 c4
-6 11 -7 17 -4 7 4 8 2 4 -5 -4 -6 -11 -9 -15 -7 -4 3 -7 -35 -6 -85 0 -50 -2
-92 -6 -94 -10 -7 -15 23 -14 87 0 32 -4 58 -9 58 -4 0 -5 8 -1 18 4 9 8 23 8
30 0 15 13 16 22 2z m1 -255 c-2 -14 -7 -24 -12 -23 -5 2 -8 9 -8 16 1 6 -3
12 -10 12 -6 0 -4 5 4 10 23 15 29 12 26 -15z m-1 -93 c1 -12 -3 -26 -9 -31
-8 -7 -11 1 -12 25 0 37 18 42 21 6z m5 -97 c0 -34 -17 -40 -23 -7 -3 15 -3
30 0 35 8 14 23 -4 23 -28z m-5 -97 c-3 -36 -21 -31 -21 6 1 24 4 32 12 25 6
-5 10 -19 9 -31z m-5 -83 c0 -14 -4 -25 -9 -25 -4 0 -6 11 -3 25 2 14 6 25 8
25 2 0 4 -11 4 -25z m4 -105 c0 -13 -4 -25 -10 -27 -6 -2 -10 10 -10 27 0 17
4 29 10 27 6 -2 10 -14 10 -27z m0 -93 c-8 -22 -23 -22 -19 1 2 9 4 21 4 27 1
5 5 5 11 -1 6 -6 8 -18 4 -27z m1 -97 c-1 -21 -14 -40 -16 -24 -8 62 -8 65 5
55 7 -6 12 -20 11 -31z m-5 -96 c0 -8 -4 -14 -10 -14 -5 0 -10 9 -10 21 0 11
5 17 10 14 6 -3 10 -13 10 -21z m4 -87 c0 -39 -18 -38 -22 2 -2 23 0 32 9 29
7 -2 13 -16 13 -31z m-13332 -89 c-7 -7 -12 -8 -12 -2 0 14 12 26 19 19 2 -3
-1 -11 -7 -17z m78 6 c0 -8 -5 -12 -10 -9 -6 4 -8 11 -5 16 9 14 15 11 15 -7z
m190 6 c0 -5 -5 -10 -11 -10 -5 0 -7 5 -4 10 3 6 8 10 11 10 2 0 4 -4 4 -10z
m60 -10 c8 -15 8 -20 -3 -20 -7 0 -13 9 -14 20 -1 11 0 20 2 20 2 0 9 -9 15
-20z m-620 0 c0 -5 -7 -10 -16 -10 -8 0 -12 5 -9 10 3 6 10 10 16 10 5 0 9 -4
9 -10z m185 0 c-3 -5 -12 -10 -18 -10 -7 0 -6 4 3 10 19 12 23 12 15 0z m65 6
c0 -3 -4 -8 -10 -11 -5 -3 -10 -1 -10 4 0 6 5 11 10 11 6 0 10 -2 10 -4z m190
-6 c0 -5 -7 -10 -16 -10 -8 0 -12 5 -9 10 3 6 10 10 16 10 5 0 9 -4 9 -10z
m13184 -22 c-4 -6 -10 -5 -15 3 -14 22 -10 33 6 19 8 -7 12 -17 9 -22z
m-13259 -10 c6 -4 2 -8 -7 -8 -10 0 -18 7 -18 17 0 9 3 12 8 7 4 -5 12 -12 17
-16z m-120 2 c3 -5 -1 -10 -9 -10 -9 0 -16 5 -16 10 0 6 4 10 9 10 6 0 13 -4
16 -10z m55 0 c0 -5 -4 -10 -10 -10 -5 0 -10 5 -10 10 0 6 5 10 10 10 6 0 10
-4 10 -10z m2150 0 c18 -12 2 -12 -25 0 -13 6 -15 9 -5 9 8 0 22 -4 30 -9z
m745 0 c3 -5 -3 -10 -14 -10 -12 0 -21 5 -21 10 0 6 6 10 14 10 8 0 18 -4 21
-10z m55 0 c0 -5 -4 -10 -10 -10 -5 0 -10 5 -10 10 0 6 5 10 10 10 6 0 10 -4
10 -10z m-2693 -6 c-3 -3 -12 -4 -19 -1 -8 3 -5 6 6 6 11 1 17 -2 13 -5z m509
-45 c8 -13 -13 -36 -23 -24 -5 4 -2 10 6 13 11 4 11 6 0 13 -9 6 -10 9 -2 9 6
0 15 -5 19 -11z m1448 -5 c10 -25 7 -34 -9 -28 -8 4 -12 11 -9 16 4 6 0 14 -7
19 -11 7 -11 9 2 9 9 0 20 -7 23 -16z m566 9 c-1 -15 -37 -56 -42 -47 -9 15
10 54 27 54 8 0 15 -3 15 -7z m240 -30 c0 -22 -2 -24 -15 -13 -8 7 -15 21 -15
31 0 12 5 16 15 13 8 -4 15 -17 15 -31z m10299 5 c0 -27 -2 -29 -8 -13 -5 11
-6 26 -4 33 8 21 13 13 12 -20z m-13309 6 c0 -2 -7 -4 -15 -4 -8 0 -15 4 -15
10 0 5 7 7 15 4 8 -4 15 -8 15 -10z m60 0 c0 -2 -7 -4 -15 -4 -8 0 -15 4 -15
10 0 5 7 7 15 4 8 -4 15 -8 15 -10z m60 0 c0 -2 -7 -4 -15 -4 -8 0 -15 4 -15
10 0 5 7 7 15 4 8 -4 15 -8 15 -10z m70 0 c0 -2 -7 -4 -15 -4 -8 0 -15 4 -15
10 0 5 7 7 15 4 8 -4 15 -8 15 -10z m1762 -15 c-3 -22 -7 -27 -13 -18 -6 10
-9 9 -9 -7 0 -11 3 -24 7 -28 4 -4 6 -26 4 -50 -1 -29 3 -47 13 -55 9 -7 13
-17 10 -22 -3 -5 3 -6 13 -2 10 3 15 3 11 -2 -8 -9 54 -45 77 -45 8 0 15 -4
15 -10 0 -5 5 -10 11 -10 5 0 8 4 5 8 -3 5 8 9 24 10 26 1 29 -2 20 -17 -6
-13 -22 -18 -54 -19 -25 0 -49 4 -52 9 -3 6 -15 7 -27 4 -17 -5 -19 -4 -7 4
13 10 13 11 0 11 -13 0 -13 1 0 10 12 8 11 10 -7 10 -12 0 -25 5 -28 10 -4 6
-10 8 -14 6 -13 -8 -34 41 -27 60 4 10 1 21 -6 25 -22 14 10 143 38 149 0 0
-2 -14 -4 -31z m-2455 15 c-3 -3 -12 -4 -19 -1 -8 3 -5 6 6 6 11 1 17 -2 13
-5z m60 0 c-3 -3 -12 -4 -19 -1 -8 3 -5 6 6 6 11 1 17 -2 13 -5z m2686 -37
c-9 -16 -24 9 -17 28 7 18 8 18 14 -1 4 -10 5 -23 3 -27z m-2683 3 c0 -5 -7
-7 -15 -4 -8 4 -12 10 -9 15 6 11 24 2 24 -11z m500 4 c0 -2 -7 -4 -15 -4 -8
0 -15 4 -15 10 0 5 7 7 15 4 8 -4 15 -8 15 -10z m-60 2 c0 -11 -19 -15 -25 -6
-3 5 1 10 9 10 9 0 16 -2 16 -4z m117 -2 c-3 -3 -12 -4 -19 -1 -8 3 -5 6 6 6
11 1 17 -2 13 -5z m2590 -16 c-3 -8 -6 -5 -6 6 -1 11 2 17 5 13 3 -3 4 -12 1
-19z m199 -5 c45 -42 34 -73 -33 -93 -61 -18 -107 -54 -99 -77 5 -12 0 -14
-28 -11 -26 3 -32 0 -28 -11 3 -8 0 -12 -8 -9 -22 7 -22 23 0 48 24 28 25 31
5 24 -19 -8 -19 3 -1 22 11 10 15 11 19 1 10 -30 77 34 69 66 -1 4 7 18 19 30
15 15 23 18 26 10 8 -21 22 -15 16 7 -7 28 8 25 43 -7z m-822 8 c4 -5 0 -12
-6 -14 -7 -3 1 -3 18 0 30 5 33 2 57 -45 14 -28 23 -53 20 -56 -4 -3 3 -6 14
-6 15 0 19 -7 19 -30 0 -16 -3 -30 -7 -30 -4 0 -16 -3 -26 -7 -15 -5 -16 -4
-7 8 15 18 2 54 -24 68 -11 6 -22 8 -25 5 -16 -17 -58 -10 -72 12 -20 30 -20
74 0 74 8 0 15 7 15 15 0 17 16 20 24 6z m174 -36 c-3 -14 -1 -25 4 -25 17 0
3 -23 -15 -26 -21 -3 -24 39 -4 61 17 20 20 18 15 -10z m-2821 -1 c-3 -3 -12
-4 -19 -1 -8 3 -5 6 6 6 11 1 17 -2 13 -5z m63 -9 c-7 -8 -16 -15 -21 -15 -5
0 -9 7 -9 15 0 9 9 15 21 15 18 0 19 -2 9 -15z m500 5 c8 13 10 12 10 -2 0
-10 -7 -18 -16 -18 -14 0 -14 -3 -4 -15 10 -12 10 -15 -4 -15 -11 0 -16 9 -16
33 0 24 3 28 10 17 9 -13 11 -13 20 0z m70 -6 c0 -8 -7 -14 -16 -14 -14 0 -15
-2 -3 -17 12 -14 12 -16 -1 -11 -23 7 -23 54 1 55 10 1 19 -5 19 -13z m58 4
c-2 -6 -10 -14 -18 -16 -7 -3 -10 0 -6 6 3 6 0 13 -6 15 -7 3 -2 6 10 6 14 1
22 -4 20 -11z m192 2 c0 -5 -7 -10 -15 -10 -8 0 -15 5 -15 10 0 6 7 10 15 10
8 0 15 -4 15 -10z m2390 -16 c0 -14 -4 -23 -10 -19 -5 3 -10 15 -10 26 0 10 5
19 10 19 6 0 10 -12 10 -26z m10603 -5 c-4 -13 -9 -17 -16 -10 -12 12 -1 45
12 37 5 -3 7 -15 4 -27z m-13068 -9 c-12 -5 -14 -9 -6 -9 8 -1 12 -4 8 -7 -9
-9 -28 6 -22 17 4 5 14 9 23 8 14 0 13 -2 -3 -9z m-815 -10 c0 -5 -5 -10 -11
-10 -5 0 -7 5 -4 10 3 6 8 10 11 10 2 0 4 -4 4 -10z m60 0 c0 -5 -4 -10 -10
-10 -5 0 -10 5 -10 10 0 6 5 10 10 10 6 0 10 -4 10 -10z m630 0 c0 -5 -5 -10
-11 -10 -5 0 -7 5 -4 10 3 6 8 10 11 10 2 0 4 -4 4 -10z m65 0 c3 -5 -1 -10
-9 -10 -9 0 -16 5 -16 10 0 6 4 10 9 10 6 0 13 -4 16 -10z m2061 -66 c-4 -13
-1 -24 7 -27 6 -3 3 -6 -8 -6 -17 -1 -20 6 -21 39 0 32 2 37 13 28 9 -7 12
-21 9 -34z m-2826 11 c5 3 11 1 15 -5 3 -5 -3 -10 -14 -10 -14 0 -21 6 -20 18
0 10 3 12 6 4 2 -6 9 -10 13 -7z m140 -6 c0 -5 -6 -9 -12 -9 -8 0 -5 -7 6 -15
19 -15 19 -15 -2 -15 -18 0 -22 6 -22 30 0 22 4 28 15 24 8 -4 15 -10 15 -15z
m627 15 c-3 -3 -12 -4 -19 -1 -8 3 -5 6 6 6 11 1 17 -2 13 -5z m67 -24 c0 -15
-6 -26 -15 -28 -11 -2 -16 5 -16 28 0 23 5 30 16 28 9 -2 15 -13 15 -28z
m13060 0 c0 -13 -4 -25 -10 -27 -6 -2 -10 10 -10 27 0 17 4 29 10 27 6 -2 10
-14 10 -27z m-13949 10 c3 -5 -1 -10 -9 -10 -9 0 -16 5 -16 10 0 6 4 10 9 10
6 0 13 -4 16 -10z m130 0 c3 -5 -1 -10 -9 -10 -9 0 -16 5 -16 10 0 6 4 10 9
10 6 0 13 -4 16 -10z m500 0 c3 -5 -1 -10 -9 -10 -9 0 -16 5 -16 10 0 6 4 10
9 10 6 0 13 -4 16 -10z m65 -6 c0 -2 -7 -4 -15 -4 -8 0 -15 4 -15 10 0 5 7 7
15 4 8 -4 15 -8 15 -10z m245 6 c3 -5 -1 -10 -9 -10 -9 0 -16 5 -16 10 0 6 4
10 9 10 6 0 13 -4 16 -10z m2696 -9 c-8 -5 -10 -14 -6 -22 6 -11 5 -11 -5 -2
-11 10 -11 15 0 28 7 8 15 13 19 10 3 -3 -1 -10 -8 -14z m-2811 -1 c0 -5 -4
-10 -10 -10 -5 0 -10 5 -10 10 0 6 5 10 10 10 6 0 10 -4 10 -10z m-760 -22 c0
-4 -7 -8 -15 -8 -8 0 -15 4 -15 8 0 5 7 9 15 9 8 0 15 -4 15 -9z m565 2 c3 -5
-1 -10 -9 -10 -9 0 -16 5 -16 10 0 6 4 10 9 10 6 0 13 -4 16 -10z m65 -6 c0
-2 -7 -4 -15 -4 -8 0 -15 4 -15 10 0 5 7 7 15 4 8 -4 15 -8 15 -10z m245 6 c3
-5 -1 -10 -9 -10 -9 0 -16 5 -16 10 0 6 4 10 9 10 6 0 13 -4 16 -10z m-998 -6
c-3 -3 -12 -4 -19 -1 -8 3 -5 6 6 6 11 1 17 -2 13 -5z m60 0 c-3 -3 -12 -4
-19 -1 -8 3 -5 6 6 6 11 1 17 -2 13 -5z m130 0 c-3 -3 -12 -4 -19 -1 -8 3 -5
6 6 6 11 1 17 -2 13 -5z m626 -1 c-7 -2 -19 -2 -25 0 -7 3 -2 5 12 5 14 0 19
-2 13 -5z m64 1 c-3 -3 -12 -4 -19 -1 -8 3 -5 6 6 6 11 1 17 -2 13 -5z m-557
-75 c0 -22 -5 -29 -20 -29 -11 0 -20 5 -20 10 0 6 5 10 11 10 6 0 8 7 5 16 -3
9 -3 20 0 25 10 17 24 -2 24 -32z m3074 33 c3 -5 -5 -17 -16 -27 -15 -12 -23
-14 -26 -7 -2 7 -8 12 -13 12 -6 0 -7 -4 -4 -10 3 -5 4 -10 1 -10 -2 0 -13 -3
-23 -6 -10 -3 -3 7 17 25 34 31 54 38 64 23z m-3270 -25 c8 -13 7 -20 -4 -27
-8 -5 -19 -6 -25 -2 -6 4 -3 8 8 10 21 4 23 22 2 22 -8 0 -15 5 -15 11 0 15
21 6 34 -14z m66 14 c0 -5 -7 -11 -15 -15 -9 -3 -15 0 -15 9 0 8 7 15 15 15 8
0 15 -4 15 -9z m57 3 c-3 -3 -12 -4 -19 -1 -8 3 -5 6 6 6 11 1 17 -2 13 -5z
m513 -4 c0 -5 -9 -10 -21 -10 -11 0 -17 5 -14 10 3 6 13 10 21 10 8 0 14 -4
14 -10z m60 0 c0 -5 -7 -7 -15 -4 -8 4 -15 8 -15 10 0 2 7 4 15 4 8 0 15 -4
15 -10z m70 1 c0 -6 -4 -13 -10 -16 -15 -9 -12 -27 3 -19 10 6 10 4 0 -7 -11
-11 -15 -11 -25 0 -10 11 -10 14 0 18 6 3 12 11 12 19 0 8 5 14 10 14 6 0 10
-4 10 -9z m53 -13 c6 -22 -9 -41 -25 -32 -4 3 -8 16 -8 30 0 30 26 32 33 2z
m179 7 c0 -5 -5 -11 -11 -13 -6 -2 -11 4 -11 13 0 9 5 15 11 13 6 -2 11 -8 11
-13z m1838 5 c0 -5 -2 -10 -4 -10 -3 0 -8 5 -11 10 -3 6 -1 10 4 10 6 0 11 -4
11 -10z m45 0 c3 -5 -1 -10 -9 -10 -9 0 -16 5 -16 10 0 6 4 10 9 10 6 0 13 -4
16 -10z m10995 0 c0 -5 -4 -10 -10 -10 -5 0 -10 5 -10 10 0 6 5 10 10 10 6 0
10 -4 10 -10z m-5410 -16 c0 -8 -4 -12 -10 -9 -5 3 -10 10 -10 16 0 5 5 9 10
9 6 0 10 -7 10 -16z m-8330 -29 c0 -3 -9 -5 -20 -5 -11 0 -20 7 -20 15 0 13 4
14 20 5 11 -6 20 -13 20 -15z m310 3 c0 -13 -32 -6 -37 9 -3 7 3 9 16 6 12 -3
21 -10 21 -15z m231 8 c5 3 9 0 9 -6 0 -15 -23 -7 -26 8 -1 7 0 8 3 2 2 -5 9
-8 14 -4z m-731 -5 c0 -5 -9 -7 -20 -4 -11 3 -20 7 -20 9 0 2 9 4 20 4 11 0
20 -4 20 -9z m114 0 c4 -5 -1 -8 -9 -7 -21 3 -31 16 -12 16 9 0 18 -4 21 -9z
m441 -1 c3 -5 -1 -10 -9 -10 -9 0 -16 5 -16 10 0 6 4 10 9 10 6 0 13 -4 16
-10z m500 0 c3 -5 2 -10 -4 -10 -5 0 -13 5 -16 10 -3 6 -2 10 4 10 5 0 13 -4
16 -10z m-935 -65 c0 -14 -6 -25 -13 -25 -8 0 -14 7 -14 15 0 8 5 15 11 15 6
0 4 5 -4 10 -13 8 -12 10 3 10 12 0 17 -8 17 -25z m70 12 c0 -7 -6 -19 -12
-26 -7 -8 -8 -11 -3 -8 6 3 10 -12 11 -36 0 -23 -1 -36 -3 -29 -3 6 -12 12
-21 12 -15 1 -14 3 2 15 16 12 17 15 4 15 -12 0 -16 10 -16 35 0 28 4 35 19
35 10 0 19 -6 19 -13z m60 0 c0 -7 -6 -19 -12 -26 -7 -8 -8 -11 -3 -8 6 3 10
-11 11 -33 0 -34 -1 -37 -15 -22 -13 12 -13 16 -2 20 10 3 10 6 1 12 -6 4 -14
21 -16 38 -4 27 -2 32 15 32 12 0 21 -6 21 -13z m60 4 c0 -6 -5 -13 -10 -16
-6 -4 -8 -11 -5 -16 4 -5 -1 -9 -9 -9 -22 0 -20 30 2 31 14 0 14 2 -3 9 -19 8
-19 9 3 9 12 1 22 -3 22 -8z m57 3 c-3 -3 -12 -4 -19 -1 -8 3 -5 6 6 6 11 1
17 -2 13 -5z m60 0 c-3 -3 -12 -4 -19 -1 -8 3 -5 6 6 6 11 1 17 -2 13 -5z m63
-4 c-8 -5 -10 -10 -4 -10 6 0 12 -11 12 -25 0 -15 -6 -25 -15 -25 -8 0 -11 -5
-8 -10 4 -6 11 -8 16 -5 5 4 9 -3 9 -15 l0 -21 -22 20 c-17 17 -19 23 -8 36
10 12 10 15 -1 16 -10 0 -11 2 -2 6 9 3 10 10 3 24 -9 16 -7 19 12 19 19 0 20
-2 8 -10z m67 4 c-3 -3 -12 -4 -19 -1 -8 3 -5 6 6 6 11 1 17 -2 13 -5z m500 0
c-3 -3 -12 -4 -19 -1 -8 3 -5 6 6 6 11 1 17 -2 13 -5z m2143 -9 c0 -9 -9 -25
-20 -37 l-20 -22 0 25 c0 24 16 49 32 49 4 0 8 -7 8 -15z m10733 -49 c2 -31 0
-56 -4 -56 -8 0 -16 78 -11 104 6 31 13 10 15 -48z m-5413 32 c0 -19 -2 -20
-10 -8 -13 19 -13 30 0 30 6 0 10 -10 10 -22z m-8150 -7 c0 -11 -6 -22 -12
-25 -10 -5 -10 -7 0 -12 17 -8 15 -44 -3 -44 -13 0 -16 11 -14 50 2 34 7 50
16 50 7 0 13 -9 13 -19z m64 4 c3 -8 1 -15 -3 -15 -5 0 -12 -7 -15 -16 -4 -12
-2 -15 9 -10 21 8 19 -6 -5 -27 -20 -17 -20 -17 -18 33 3 49 19 67 32 35z
m128 4 c8 -25 -5 -89 -18 -89 -8 0 -14 9 -14 20 0 11 5 20 11 20 6 0 4 7 -5
15 -8 9 -13 22 -10 30 7 17 31 20 36 4z m498 0 c0 -5 -4 -8 -9 -5 -5 4 -12 0
-14 -6 -3 -8 -6 -6 -6 5 -1 9 6 17 14 17 8 0 15 -5 15 -11z m-1005 -9 c3 -6
-1 -7 -9 -4 -18 7 -21 14 -7 14 6 0 13 -4 16 -10z m880 0 c3 -5 -3 -10 -15
-10 -12 0 -18 5 -15 10 3 6 10 10 15 10 5 0 12 -4 15 -10z m7025 -31 c0 -11
-7 -19 -17 -19 -15 0 -16 2 -3 10 9 6 10 10 3 10 -6 0 -11 9 -10 19 2 26 27 7
27 -20z m-7331 -11 c1 -32 -1 -38 -19 -38 -17 0 -20 6 -20 38 0 30 4 38 18 38
14 0 19 -9 21 -38z m2501 -12 c-7 -7 -14 -6 -22 3 -10 11 -10 14 0 18 6 3 12
12 13 21 0 11 4 9 10 -7 6 -16 6 -28 -1 -35z m-3015 24 c3 -6 -1 -7 -9 -4 -18
7 -21 14 -7 14 6 0 13 -4 16 -10z m815 0 c0 -5 -5 -10 -11 -10 -5 0 -7 5 -4
10 3 6 8 10 11 10 2 0 4 -4 4 -10z m-821 -24 c9 -11 9 -16 0 -22 -8 -4 -9 -3
-5 4 4 7 2 12 -3 12 -6 0 -11 5 -11 10 0 14 5 13 19 -4z m198 -2 c-3 -3 -12
-4 -19 -1 -8 3 -5 6 6 6 11 1 17 -2 13 -5z m557 0 c23 -9 20 -23 -4 -21 -11 1
-20 7 -20 14 0 15 2 15 24 7z m69 -7 c3 -8 -3 -14 -14 -14 -21 -2 -26 13 -6
20 6 3 13 6 13 6 1 1 4 -5 7 -12z m-626 -13 c-3 -3 -12 -4 -19 -1 -8 3 -5 6 6
6 11 1 17 -2 13 -5z m7650 0 c-3 -3 -12 -4 -19 -1 -8 3 -5 6 6 6 11 1 17 -2
13 -5z m-7461 -57 c2 -20 -2 -27 -14 -27 -15 0 -15 2 -2 10 12 8 12 10 1 10
-10 0 -11 3 -2 14 8 10 9 16 1 19 -6 3 -6 5 1 3 7 -1 13 -14 15 -29z m184 18
c10 -12 10 -15 0 -15 -10 0 -10 -3 0 -15 10 -13 9 -15 -9 -15 -17 0 -21 6 -21
30 0 33 11 38 30 15z m197 -17 c3 -23 0 -28 -17 -28 -16 0 -20 6 -20 31 0 40
32 37 37 -3z m45 23 c-11 -7 -11 -9 2 -14 22 -9 21 -39 -1 -35 -11 2 -17 12
-16 26 1 31 2 32 16 32 9 0 9 -2 -1 -9z m7038 -11 c0 -12 -7 -20 -17 -20 -14
0 -15 2 -4 9 7 5 10 14 7 20 -4 6 -2 11 3 11 6 0 11 -9 11 -20z m560 6 c0 -8
3 -23 6 -33 5 -16 4 -16 -10 1 -18 22 -21 46 -6 46 6 0 10 -6 10 -14z m5414
-16 c0 -13 -4 -25 -10 -27 -6 -2 -10 10 -10 27 0 17 4 29 10 27 6 -2 10 -14
10 -27z m-13699 2 c-3 -3 -11 0 -18 7 -9 10 -8 11 6 5 10 -3 15 -9 12 -12z
m65 8 c0 -5 -5 -10 -11 -10 -5 0 -7 5 -4 10 3 6 8 10 11 10 2 0 4 -4 4 -10z
m65 0 c3 -5 -1 -10 -9 -10 -9 0 -16 5 -16 10 0 6 4 10 9 10 6 0 13 -4 16 -10z
m60 0 c3 -5 -1 -10 -9 -10 -9 0 -16 5 -16 10 0 6 4 10 9 10 6 0 13 -4 16 -10z
m130 0 c3 -5 -1 -10 -9 -10 -9 0 -16 5 -16 10 0 6 4 10 9 10 6 0 13 -4 16 -10z
m62 -4 c-3 -7 0 -19 6 -25 8 -8 4 -11 -15 -11 -22 0 -25 4 -20 25 2 14 11 25
19 25 9 0 13 -6 10 -14z m373 -10 c0 -2 -7 -7 -16 -10 -8 -3 -12 -2 -9 4 6 10
25 14 25 6z m-620 -22 c0 -2 -7 -4 -15 -4 -8 0 -15 4 -15 10 0 5 7 7 15 4 8
-4 15 -8 15 -10z m60 0 c0 -2 -7 -4 -15 -4 -8 0 -15 4 -15 10 0 5 7 7 15 4 8
-4 15 -8 15 -10z m130 0 c0 -2 -9 -4 -21 -4 -11 0 -18 4 -14 10 5 8 35 3 35
-6z m-573 0 c-3 -3 -12 -4 -19 -1 -8 3 -5 6 6 6 11 1 17 -2 13 -5z m130 0 c-3
-3 -12 -4 -19 -1 -8 3 -5 6 6 6 11 1 17 -2 13 -5z m60 0 c-3 -3 -12 -4 -19 -1
-8 3 -5 6 6 6 11 1 17 -2 13 -5z m60 0 c-3 -3 -12 -4 -19 -1 -8 3 -5 6 6 6 11
1 17 -2 13 -5z m70 0 c-3 -3 -12 -4 -19 -1 -8 3 -5 6 6 6 11 1 17 -2 13 -5z
m8218 -64 c0 -13 -6 -25 -12 -27 -9 -3 -13 6 -13 27 0 21 4 30 13 28 6 -3 12
-15 12 -28z m5410 2 c2 -12 0 -24 -4 -27 -10 -5 -21 41 -13 50 8 7 12 1 17
-23z m-13505 8 c0 -5 -4 -10 -9 -10 -6 0 -13 5 -16 10 -3 6 1 10 9 10 9 0 16
-4 16 -10z m68 -14 c0 -21 -3 -23 -14 -11 -16 16 -19 29 -4 20 6 -3 10 -1 10
4 0 6 2 11 4 11 2 0 4 -11 4 -24z m72 15 c0 -11 -39 -21 -45 -11 -2 4 -2 10 2
14 10 9 43 7 43 -3z m60 -1 c0 -5 -7 -10 -15 -10 -8 0 -15 -4 -15 -10 0 -5 5
-10 11 -10 5 0 7 -5 4 -10 -10 -16 -25 -1 -25 26 0 17 5 24 20 24 11 0 20 -4
20 -10z m41 -30 c5 0 9 -4 9 -10 0 -5 -7 -10 -15 -10 -11 0 -15 10 -14 33 1
23 3 26 6 10 2 -13 9 -23 14 -23z m19 25 c0 -8 -4 -15 -10 -15 -5 0 -10 7 -10
15 0 8 5 15 10 15 6 0 10 -7 10 -15z m180 11 c0 -2 -7 -6 -15 -10 -8 -3 -15
-1 -15 4 0 6 7 10 15 10 8 0 15 -2 15 -4z m60 -6 c0 -5 -4 -10 -10 -10 -5 0
-10 5 -10 10 0 6 5 10 10 10 6 0 10 -4 10 -10z m7030 0 c0 -5 -7 -10 -15 -10
-8 0 -15 5 -15 10 0 6 7 10 15 10 8 0 15 -4 15 -10z m1138 -10 c10 -17 10 -20
-3 -20 -8 0 -15 2 -15 4 0 2 -3 11 -6 20 -9 23 9 20 24 -4z m-8678 -31 c0 -6
-4 -7 -10 -4 -5 3 -10 11 -10 16 0 6 5 7 10 4 6 -3 10 -11 10 -16z m450 13 c0
-5 -7 -9 -15 -9 -8 0 -15 4 -15 9 0 4 7 8 15 8 8 0 15 -4 15 -8z m7084 1 c-5
-5 -12 -12 -16 -18 -4 -6 -8 -2 -8 8 0 9 7 17 17 17 9 0 12 -3 7 -7z m-7397
-9 c-3 -3 -12 -4 -19 -1 -8 3 -5 6 6 6 11 1 17 -2 13 -5z m7971 -46 c15 -15
16 -54 2 -63 -5 -3 -10 -11 -10 -16 0 -6 5 -7 10 -4 7 4 10 -80 10 -245 0
-195 3 -251 13 -249 33 4 47 -2 47 -21 0 -20 -9 -24 -42 -21 -14 2 -16 -13
-14 -143 2 -136 3 -146 24 -164 12 -11 22 -27 22 -37 0 -9 9 -19 20 -22 11 -3
20 -12 20 -19 0 -8 7 -17 15 -20 16 -6 21 -54 7 -54 -5 0 -15 11 -22 25 -23
43 -100 42 -100 -2 0 -8 -6 -13 -12 -10 -7 2 -12 10 -10 16 4 18 -46 37 -60
23 -9 -9 -9 -12 3 -13 7 -1 1 -4 -16 -8 -16 -4 -29 -12 -28 -19 2 -7 -4 -12
-12 -12 -9 0 -18 -7 -21 -15 -8 -21 -21 -19 -27 5 -3 11 0 18 7 17 6 -1 10 4
8 12 -2 7 4 21 11 30 8 9 18 27 22 40 5 17 10 20 15 11 9 -15 30 -5 30 14 0 7
11 23 25 36 24 23 25 27 25 167 l0 143 -28 0 c-16 0 -32 3 -36 8 -4 4 -12 7
-17 7 -5 0 -9 4 -9 9 -1 10 18 15 63 18 23 1 27 5 28 32 0 17 2 126 3 241 5
313 5 315 14 315 4 0 13 -5 20 -12z m578 -18 c1 -6 2 -11 4 -12 8 -11 8 -108
-1 -108 -6 0 -7 -5 -2 -12 4 -7 8 -16 9 -20 1 -5 2 -11 4 -15 1 -5 1 -29 0
-56 -1 -41 2 -48 22 -56 l23 -10 -23 0 c-21 -1 -23 -5 -20 -50 2 -27 6 -47 10
-44 5 2 8 0 8 -6 0 -5 -4 -13 -10 -16 -5 -3 -10 -35 -10 -71 0 -51 3 -64 16
-64 8 0 13 -4 10 -9 -3 -5 0 -9 7 -8 44 1 67 -5 67 -17 0 -20 -10 -25 -58 -27
-44 -3 -56 -20 -26 -37 11 -6 13 -11 5 -16 -17 -11 -13 -26 7 -27 13 0 12 -2
-5 -9 -13 -5 -23 -16 -23 -25 0 -9 9 -15 23 -16 21 0 21 -1 2 -9 l-20 -9 20
-1 c20 -1 20 -1 1 -15 -11 -8 -16 -15 -10 -15 5 0 3 -4 -4 -9 -18 -11 -5 -62
14 -54 10 4 12 0 8 -11 -3 -9 -12 -16 -20 -16 -8 0 -14 -4 -14 -10 0 -5 5 -10
11 -10 5 0 16 -15 24 -34 8 -19 24 -37 35 -41 19 -6 24 -16 21 -42 -1 -7 4
-13 10 -13 7 0 10 -3 6 -6 -3 -3 -20 4 -37 16 -29 20 -32 21 -49 6 -10 -9 -25
-16 -34 -16 -9 0 -17 -4 -17 -10 0 -18 -18 -10 -23 10 -3 13 -11 18 -20 14 -9
-3 -13 -12 -10 -20 3 -8 0 -14 -7 -14 -6 0 -8 -4 -5 -10 3 -5 -1 -10 -10 -10
-9 0 -13 5 -10 10 3 5 0 10 -8 10 -7 0 -20 -11 -27 -25 -7 -13 -17 -22 -22
-19 -18 11 -7 52 22 79 17 16 30 32 30 36 0 4 14 23 32 43 l32 37 3 144 2 145
-30 0 c-16 0 -29 2 -29 4 0 2 -3 11 -6 20 -5 13 1 16 25 16 18 0 34 6 36 13 3
6 6 116 8 242 2 127 6 236 10 242 4 6 3 14 -3 18 -11 7 -14 58 -3 69 7 7 27
-9 29 -24z m-8426 -1 c0 -5 -5 -9 -12 -9 -6 0 -3 -7 8 -15 19 -14 18 -14 -3
-15 -19 0 -23 5 -23 30 0 22 4 28 15 24 8 -4 15 -10 15 -15z m7270 -9 c-10 -7
-11 -10 -2 -10 6 0 12 -4 12 -10 0 -5 -7 -10 -15 -10 -9 0 -15 9 -15 23 0 29
10 41 24 27 8 -8 6 -14 -4 -20z m5984 0 c0 -36 -19 -35 -22 1 -2 21 2 29 10
27 7 -3 12 -15 12 -28z m-13379 10 c3 -5 -1 -10 -9 -10 -9 0 -16 5 -16 10 0 6
4 10 9 10 6 0 13 -4 16 -10z m60 0 c3 -5 -1 -10 -9 -10 -9 0 -16 5 -16 10 0 6
4 10 9 10 6 0 13 -4 16 -10z m245 0 c0 -5 -4 -10 -10 -10 -5 0 -10 5 -10 10 0
6 5 10 10 10 6 0 10 -4 10 -10z m-245 -30 c3 -5 -1 -10 -9 -10 -9 0 -16 5 -16
10 0 6 4 10 9 10 6 0 13 -4 16 -10z m250 0 c3 -5 -1 -10 -9 -10 -9 0 -16 5
-16 10 0 6 4 10 9 10 6 0 13 -4 16 -10z m-308 -6 c-3 -3 -12 -4 -19 -1 -8 3
-5 6 6 6 11 1 17 -2 13 -5z m7400 -69 c-1 -19 -4 -35 -8 -35 -4 0 -9 -7 -12
-14 -4 -11 -1 -13 10 -9 13 5 15 -2 12 -46 -2 -28 -2 -51 1 -51 3 0 5 -66 5
-147 0 -141 1 -148 20 -149 50 -3 53 -4 48 -23 -3 -13 -15 -21 -36 -23 l-30
-3 2 -143 c2 -131 4 -144 24 -166 12 -13 40 -43 62 -67 22 -24 41 -53 42 -66
2 -29 -4 -29 -29 2 -26 33 -38 32 -38 -5 0 -29 -2 -30 -22 -19 -22 12 -22 12
-3 20 20 8 20 8 0 9 -19 1 -19 2 -3 14 10 7 15 16 12 19 -10 10 -44 -12 -44
-28 0 -8 -6 -15 -12 -16 -10 0 -10 -2 0 -6 19 -8 14 -23 -8 -23 -15 0 -20 7
-20 25 0 26 -7 30 -28 17 -7 -5 -10 -16 -6 -25 4 -12 1 -17 -10 -17 -10 0 -16
9 -16 24 0 37 -17 40 -31 7 -7 -17 -22 -32 -33 -35 -43 -11 -2 -17 133 -19
112 -2 144 -5 151 -17 12 -19 -6 -40 -34 -40 -163 -1 -266 -5 -266 -11 0 -4 6
-12 14 -18 22 -19 38 -71 22 -71 -8 0 -17 10 -21 23 -4 12 -8 25 -10 30 -1 4
-3 11 -4 16 0 5 -10 13 -21 16 -11 3 -20 11 -20 17 0 5 7 8 15 4 8 -3 15 -2
15 3 0 5 -9 11 -20 14 -11 3 -20 11 -19 19 0 10 2 10 6 1 3 -10 9 -9 21 3 15
15 14 18 -7 35 -13 11 -19 19 -14 19 6 0 15 10 21 23 l11 22 1 -25 1 -25 10
25 c6 13 17 33 26 42 13 15 13 18 2 19 -8 1 -1 4 16 8 19 4 31 13 33 26 3 11
10 24 18 28 19 11 18 27 -1 27 -24 0 -19 51 5 57 28 7 26 43 -2 44 l-23 2 23
4 c12 2 22 9 22 14 0 5 -10 10 -22 10 l-23 2 23 4 c28 5 32 52 5 54 -17 1 -17
2 0 6 12 3 17 15 17 39 0 19 0 37 1 42 0 4 -10 9 -23 12 -34 8 -37 40 -4 40
21 0 26 5 27 28 1 15 2 41 4 57 1 17 3 95 4 175 2 80 7 150 12 157 6 7 6 13 1
17 -13 8 -2 56 13 56 8 0 13 -13 12 -35z m5981 -6 c3 -28 1 -32 -9 -21 -16 15
-20 64 -6 59 6 -2 13 -19 15 -38z m-13318 27 c0 -11 -19 -15 -25 -6 -3 5 1 10
9 10 9 0 16 -2 16 -4z m60 -12 c0 -2 -7 -4 -15 -4 -8 0 -15 4 -15 10 0 5 7 7
15 4 8 -4 15 -8 15 -10z m187 0 c-3 -3 -12 -4 -19 -1 -8 3 -5 6 6 6 11 1 17
-2 13 -5z m-187 -30 c0 -2 -7 -4 -15 -4 -8 0 -15 4 -15 10 0 5 7 7 15 4 8 -4
15 -8 15 -10z m-63 0 c-3 -3 -12 -4 -19 -1 -8 3 -5 6 6 6 11 1 17 -2 13 -5z
m13318 -76 c-3 -38 -25 -33 -23 6 1 26 4 33 13 26 6 -5 11 -20 10 -32z
m-13255 11 c0 -5 -7 -9 -15 -9 -8 0 -15 7 -15 15 0 9 6 12 15 9 8 -4 15 -10
15 -15z m9740 1 c0 -11 -7 -20 -15 -20 -8 0 -15 5 -15 10 0 6 6 10 13 10 8 0
7 4 -3 10 -13 8 -12 10 3 10 10 0 17 -8 17 -20z m34 -12 c4 -17 2 -28 -4 -28
-5 0 -10 14 -10 32 0 36 4 35 14 -4z m26 12 c0 -11 -4 -20 -9 -20 -5 0 -7 9
-4 20 3 11 7 20 9 20 2 0 4 -9 4 -20z m744 5 c3 -8 1 -15 -4 -15 -18 0 -10
-20 8 -21 11 0 12 -2 4 -6 -19 -8 -44 17 -32 32 5 6 7 15 3 18 -3 4 -2 7 4 7
6 0 13 -7 17 -15z m-7471 -12 c-7 -3 -9 -11 -6 -19 3 -8 1 -14 -5 -14 -15 0
-22 26 -10 38 6 6 16 8 22 5 7 -5 6 -8 -1 -10z m57 7 c0 -5 -4 -10 -10 -10 -5
0 -10 5 -10 10 0 6 5 10 10 10 6 0 10 -4 10 -10z m130 0 c0 -5 -5 -10 -11 -10
-5 0 -7 5 -4 10 3 6 8 10 11 10 2 0 4 -4 4 -10z m-69 -9 c-11 -7 -10 -11 5
-20 18 -10 18 -10 -3 -11 -16 0 -23 6 -23 20 0 12 7 20 18 20 13 0 14 -2 3 -9z
m2387 -5 c-7 -8 -15 -12 -17 -11 -5 6 10 25 20 25 5 0 4 -6 -3 -14z m-5578
-22 c0 -2 -7 -4 -15 -4 -8 0 -15 4 -15 10 0 5 7 7 15 4 8 -4 15 -8 15 -10z
m10405 6 c3 -5 1 -10 -4 -10 -6 0 -11 5 -11 10 0 6 2 10 4 10 3 0 8 -4 11 -10z
m75 0 c0 -5 -8 -10 -17 -10 -15 0 -16 2 -3 10 19 12 20 12 20 0z m-7463 -6
c-3 -3 -12 -4 -19 -1 -8 3 -5 6 6 6 11 1 17 -2 13 -5z m-57 -43 c0 -6 -4 -12
-10 -16 -5 -3 -7 -12 -3 -20 3 -10 -2 -15 -17 -15 -18 0 -20 4 -14 23 9 30 44
52 44 28z m40 5 c0 -3 -4 -8 -10 -11 -5 -3 -10 -1 -10 4 0 6 5 11 10 11 6 0
10 -2 10 -4z m10252 -31 c-4 -23 -6 -24 -17 -8 -9 12 -9 20 -1 29 16 17 24 8
18 -21z m-9797 15 c3 -5 -1 -10 -9 -10 -9 0 -16 5 -16 10 0 6 4 10 9 10 6 0
13 -4 16 -10z m4330 -10 c-3 -5 -10 -10 -16 -10 -5 0 -9 5 -9 10 0 6 7 10 16
10 8 0 12 -4 9 -10z m5518 3 c-7 -2 -19 -2 -25 0 -7 3 -2 5 12 5 14 0 19 -2
13 -5z m-13303 -29 c0 -2 -7 -4 -15 -4 -8 0 -15 4 -15 10 0 5 7 7 15 4 8 -4
15 -8 15 -10z m5517 10 c-3 -3 -12 -4 -19 -1 -8 3 -5 6 6 6 11 1 17 -2 13 -5z
m-5580 -10 c-3 -3 -12 -4 -19 -1 -8 3 -5 6 6 6 11 1 17 -2 13 -5z m2958 -4 c3
-5 2 -10 -4 -10 -5 0 -13 5 -16 10 -3 6 -2 10 4 10 5 0 13 -4 16 -10z m10359
-67 c-1 -40 -20 -39 -21 1 0 22 3 33 11 30 6 -2 11 -16 10 -31z m-13254 6 c0
-4 -7 -6 -15 -3 -8 4 -15 10 -15 15 0 4 7 6 15 3 8 -4 15 -10 15 -15z m5528
-9 c-2 -21 -7 -30 -20 -30 -20 0 -21 4 -12 38 10 34 35 28 32 -8z m-2398 10
c0 -5 -2 -10 -4 -10 -3 0 -8 5 -11 10 -3 6 -1 10 4 10 6 0 11 -4 11 -10z
m-693 -20 c-1 -12 -5 -16 -10 -11 -5 5 -6 14 -3 20 11 16 15 13 13 -9z m-2441
-17 c-7 -7 -26 7 -26 19 0 6 6 6 15 -2 9 -7 13 -15 11 -17z m3199 -2 c-6 -5
-25 10 -25 20 0 5 6 4 14 -3 8 -7 12 -15 11 -17z m-185 9 c0 -5 -4 -10 -9 -10
-6 0 -13 5 -16 10 -3 6 1 10 9 10 9 0 16 -4 16 -10z m60 0 c0 -5 -2 -10 -4
-10 -3 0 -8 5 -11 10 -3 6 -1 10 4 10 6 0 11 -4 11 -10z m250 0 c0 -5 -2 -10
-4 -10 -3 0 -8 5 -11 10 -3 6 -1 10 4 10 6 0 11 -4 11 -10z m9944 -60 c-8 -3
-15 -10 -14 -15 3 -19 -18 -15 -23 4 -7 28 11 42 34 28 16 -10 17 -13 3 -17z
m-10314 4 c0 -8 -4 -12 -10 -9 -5 3 -10 10 -10 16 0 5 5 9 10 9 6 0 10 -7 10
-16z m68 -5 c3 -12 2 -12 -6 0 -8 11 -10 11 -14 0 -3 -8 -9 -11 -13 -7 -10 9
4 30 18 25 6 -2 12 -10 15 -18z m2512 0 c0 -10 -11 -26 -25 -35 -14 -9 -25
-23 -25 -30 0 -18 4 -18 41 2 l31 16 -7 -31 c-4 -18 -3 -31 3 -31 5 0 9 7 8
16 0 9 5 19 12 21 7 3 12 -3 12 -14 0 -23 -15 -46 -26 -41 -5 1 -10 -43 -12
-100 -3 -100 -3 -103 -25 -100 -17 2 -23 11 -25 36 -3 30 4 37 31 33 4 0 7 9
7 21 0 17 -3 19 -12 10 -21 -21 -28 -13 -28 28 0 29 4 40 15 40 8 0 15 5 15
11 0 5 -5 7 -11 4 -5 -4 -19 4 -30 17 -16 18 -31 23 -65 23 -34 0 -44 4 -44
16 0 18 39 32 64 23 18 -7 66 41 66 66 0 9 7 17 15 17 8 0 15 -8 15 -18z
m-2780 1 c0 -5 -4 -10 -10 -10 -5 0 -10 5 -10 10 0 6 5 10 10 10 6 0 10 -4 10
-10z m325 0 c3 -5 -1 -10 -9 -10 -9 0 -16 5 -16 10 0 6 4 10 9 10 6 0 13 -4
16 -10z m-130 -32 c6 -4 2 -8 -7 -8 -10 0 -18 7 -18 17 0 9 3 12 8 7 4 -5 12
-12 17 -16z m-2945 -4 c0 -2 -7 -4 -15 -4 -8 0 -15 4 -15 10 0 5 7 7 15 4 8
-4 15 -8 15 -10z m2894 4 c-7 -11 -34 -10 -34 1 0 6 9 9 19 8 11 0 17 -5 15
-9z m111 2 c3 -5 -1 -10 -9 -10 -9 0 -16 5 -16 10 0 6 4 10 9 10 6 0 13 -4 16
-10z m79 -2 c-7 -11 -34 -10 -34 1 0 6 9 9 19 8 11 0 17 -5 15 -9z m246 -4 c0
-2 -7 -4 -15 -4 -8 0 -15 4 -15 10 0 5 7 7 15 4 8 -4 15 -8 15 -10z m4010 6
c0 -5 -5 -10 -11 -10 -5 0 -7 5 -4 10 3 6 8 10 11 10 2 0 4 -4 4 -10z m-7403
-6 c-3 -3 -12 -4 -19 -1 -8 3 -5 6 6 6 11 1 17 -2 13 -5z m5406 -48 c6 -16
-19 -30 -28 -16 -4 6 0 10 7 10 9 0 9 3 -2 10 -13 8 -13 10 1 10 9 0 19 -6 22
-14z m7912 -22 c-1 -40 -19 -37 -23 5 -3 24 0 32 10 29 7 -3 13 -18 13 -34z
m-13255 10 c0 -2 -7 -4 -15 -4 -8 0 -15 4 -15 10 0 5 7 7 15 4 8 -4 15 -8 15
-10z m3330 0 c0 -2 -7 -4 -15 -4 -8 0 -15 4 -15 10 0 5 7 7 15 4 8 -4 15 -8
15 -10z m-3330 -30 c0 -2 -7 -4 -15 -4 -8 0 -15 4 -15 10 0 5 7 7 15 4 8 -4
15 -8 15 -10z m5 -53 c3 -5 1 -12 -5 -16 -5 -3 -10 1 -10 9 0 18 6 21 15 7z
m185 5 c0 -3 -4 -8 -10 -11 -5 -3 -10 -1 -10 4 0 6 5 11 10 11 6 0 10 -2 10
-4z m3077 -2 c-3 -3 -12 -4 -19 -1 -8 3 -5 6 6 6 11 1 17 -2 13 -5z m4071 -19
c-3 -13 -1 -26 4 -29 5 -2 3 -3 -3 -2 -15 3 -21 56 -7 56 6 0 8 -11 6 -25z
m5912 -2 c0 -20 -3 -24 -11 -16 -7 7 -9 19 -6 27 10 24 17 19 17 -11z m-11263
-5 c-3 -8 -6 -5 -6 6 -1 11 2 17 5 13 3 -3 4 -12 1 -19z m5913 -8 c-12 -8 -12
-10 -1 -10 8 0 12 -3 8 -6 -9 -9 -28 6 -22 17 4 5 12 9 18 9 7 0 6 -4 -3 -10z
m-7905 -18 c-3 -3 -11 0 -18 7 -9 10 -8 11 6 5 10 -3 15 -9 12 -12z m3265 8
c0 -5 -4 -10 -10 -10 -5 0 -10 5 -10 10 0 6 5 10 10 10 6 0 10 -4 10 -10z m60
0 c0 -5 -4 -10 -10 -10 -5 0 -10 5 -10 10 0 6 5 10 10 10 6 0 10 -4 10 -10z
m9944 -55 c-14 -10 -15 -15 -5 -31 10 -15 11 -15 7 -2 -3 10 -1 20 5 24 17 10
19 -1 5 -28 -8 -15 -11 -30 -8 -34 4 -4 1 -4 -6 0 -7 4 -9 12 -6 18 5 7 2 9
-8 5 -12 -4 -15 2 -15 28 1 27 5 33 24 33 21 0 22 -2 7 -13z m-13269 -5 c3 -5
-1 -10 -9 -10 -9 0 -16 5 -16 10 0 6 4 10 9 10 6 0 13 -4 16 -10z m3335 -6 c0
-2 -7 -4 -15 -4 -8 0 -15 4 -15 10 0 5 7 7 15 4 8 -4 15 -8 15 -10z m60 0 c0
-2 -7 -4 -15 -4 -8 0 -15 4 -15 10 0 5 7 7 15 4 8 -4 15 -8 15 -10z m3950 6
c0 -5 -7 -10 -16 -10 -8 0 -12 5 -9 10 3 6 10 10 16 10 5 0 9 -4 9 -10z m570
-12 c0 -6 -6 -5 -15 2 -8 7 -15 14 -15 16 0 2 7 1 15 -2 8 -4 15 -11 15 -16z
m-4643 6 c-3 -3 -12 -4 -19 -1 -8 3 -5 6 6 6 11 1 17 -2 13 -5z m250 0 c-3 -3
-12 -4 -19 -1 -8 3 -5 6 6 6 11 1 17 -2 13 -5z m4268 -14 c3 -6 -1 -7 -9 -4
-18 7 -21 14 -7 14 6 0 13 -4 16 -10z m-7785 -16 c0 -2 -7 -4 -15 -4 -8 0 -15
4 -15 10 0 5 7 7 15 4 8 -4 15 -8 15 -10z m3330 0 c0 -2 -7 -4 -15 -4 -8 0
-15 4 -15 10 0 5 7 7 15 4 8 -4 15 -8 15 -10z m55 -2 c-3 -3 -11 0 -18 7 -9
10 -8 11 6 5 10 -3 15 -9 12 -12z m-3198 2 c-3 -3 -12 -4 -19 -1 -8 3 -5 6 6
6 11 1 17 -2 13 -5z m3076 -1 c-7 -2 -19 -2 -25 0 -7 3 -2 5 12 5 14 0 19 -2
13 -5z m4074 1 c-3 -3 -12 -4 -19 -1 -8 3 -5 6 6 6 11 1 17 -2 13 -5z m-3883
-55 c-7 -11 -34 -12 -34 -1 0 14 11 21 26 15 8 -3 11 -9 8 -14z m-3524 7 c0
-3 -4 -8 -10 -11 -5 -3 -10 -1 -10 4 0 6 5 11 10 11 6 0 10 -2 10 -4z m70 -6
c0 -5 -4 -10 -10 -10 -5 0 -10 5 -10 10 0 6 5 10 10 10 6 0 10 -4 10 -10z
m1993 -20 c-7 -28 -13 -25 -13 6 0 14 4 23 9 20 5 -3 7 -15 4 -26z m1337 20
c0 -5 -4 -10 -10 -10 -5 0 -10 5 -10 10 0 6 5 10 10 10 6 0 10 -4 10 -10z
m2205 0 c-3 -5 -12 -10 -20 -10 -8 0 -17 5 -20 10 -4 6 5 10 20 10 15 0 24 -4
20 -10z m1815 6 c0 -2 -7 -6 -15 -10 -8 -3 -15 -1 -15 4 0 6 7 10 15 10 8 0
15 -2 15 -4z m440 -6 c0 -5 -7 -10 -15 -10 -8 0 -15 5 -15 10 0 6 7 10 15 10
8 0 15 -4 15 -10z m5493 -9 c2 -11 0 -25 -7 -31 -7 -8 -7 -14 -1 -16 27 -11
38 -24 44 -55 7 -32 5 -35 -27 -50 -31 -14 -38 -15 -64 -2 -16 8 -40 13 -54
10 -33 -6 -33 30 0 42 13 5 26 17 29 25 4 9 14 16 22 16 9 0 13 5 10 10 -3 6
0 10 7 11 10 0 10 2 1 6 -7 2 -13 16 -13 29 0 19 5 24 24 24 15 0 26 -7 29
-19z m-7949 -9 c3 -5 -1 -9 -9 -9 -8 0 -15 4 -15 9 0 4 4 8 9 8 6 0 12 -4 15
-8z m196 -11 c0 -5 -9 -11 -20 -14 -13 -3 -20 0 -20 9 0 8 9 14 20 14 11 0 20
-4 20 -9z m1815 -8 c3 -10 -1 -13 -12 -11 -9 2 -18 8 -20 14 -5 16 25 13 32
-3z m445 2 c0 -8 -4 -15 -9 -15 -13 0 -22 16 -14 24 11 11 23 6 23 -9z m-7790
-5 c12 -7 10 -9 -8 -7 -12 0 -22 5 -22 9 0 11 12 10 30 -2z m180 0 c0 -5 -2
-10 -4 -10 -3 0 -8 5 -11 10 -3 6 -1 10 4 10 6 0 11 -4 11 -10z m3080 0 c0 -5
-4 -10 -10 -10 -5 0 -10 5 -10 10 0 6 5 10 10 10 6 0 10 -4 10 -10z m2205 -41
c10 -14 1 -21 -19 -13 -9 3 -13 10 -10 15 7 12 21 11 29 -2z m65 -23 c-5 -13
-6 -27 -3 -30 4 -3 -3 -6 -15 -6 -17 0 -20 5 -17 28 2 15 4 28 4 30 1 1 10 2
21 2 16 0 18 -4 10 -24z m60 14 c0 -5 -7 -10 -16 -10 -8 0 -12 5 -9 10 3 6 10
10 16 10 5 0 9 -4 9 -10z m-5595 -10 c3 -5 -1 -10 -9 -10 -9 0 -16 5 -16 10 0
6 4 10 9 10 6 0 13 -4 16 -10z m15 -36 c0 -2 -9 -4 -20 -4 -11 0 -20 4 -20 9
0 5 9 7 20 4 11 -3 20 -7 20 -9z m3260 0 c0 -2 -7 -4 -15 -4 -8 0 -15 4 -15
10 0 5 7 7 15 4 8 -4 15 -8 15 -10z m2200 4 c0 -4 -9 -8 -20 -8 -11 0 -20 4
-20 8 0 4 9 8 20 8 11 0 20 -4 20 -8z m120 -4 c0 -2 -7 -4 -15 -4 -8 0 -15 4
-15 10 0 5 7 7 15 4 8 -4 15 -8 15 -10z m7778 7 c10 -6 9 -10 -7 -14 -14 -3
-21 0 -21 9 0 16 9 18 28 5z m-13431 -7 c-3 -3 -12 -4 -19 -1 -8 3 -5 6 6 6
11 1 17 -2 13 -5z m2010 0 c-3 -3 -12 -4 -19 -1 -8 3 -5 6 6 6 11 1 17 -2 13
-5z m-1937 -54 c0 -5 -9 -10 -20 -10 -11 0 -20 5 -20 10 0 6 9 10 20 10 11 0
20 -4 20 -10z m5515 0 c3 -5 2 -10 -4 -10 -5 0 -13 5 -16 10 -3 6 -2 10 4 10
5 0 13 -4 16 -10z m-3578 -26 c-3 -3 -12 -4 -19 -1 -8 3 -5 6 6 6 11 1 17 -2
13 -5z m3586 -1 c-7 -2 -19 -2 -25 0 -7 3 -2 5 12 5 14 0 19 -2 13 -5z m2244
1 c-3 -3 -12 -4 -19 -1 -8 3 -5 6 6 6 11 1 17 -2 13 -5z m-7840 -10 c-3 -3
-12 -4 -19 -1 -8 3 -5 6 6 6 11 1 17 -2 13 -5z m3320 0 c-3 -3 -12 -4 -19 -1
-8 3 -5 6 6 6 11 1 17 -2 13 -5z m4725 -57 c16 -25 -2 -32 -93 -34 -52 -1
-127 -3 -168 -5 -69 -3 -74 -1 -84 20 -8 17 -8 25 0 30 20 13 337 2 345 -11z
m560 5 c4 -4 3 -13 -1 -21 -6 -9 -42 -14 -126 -17 -66 -2 -123 -8 -131 -15
-19 -16 -34 -2 -32 29 1 15 3 30 4 33 4 8 277 0 286 -9z m-8551 -6 c5 3 9 0 9
-5 0 -6 -7 -11 -15 -11 -8 0 -15 8 -14 18 0 10 3 12 6 4 2 -6 9 -10 14 -6z
m3710 -1 c5 4 6 -1 2 -10 -5 -13 -7 -14 -14 -3 -5 7 -8 18 -8 23 0 6 3 4 6 -3
2 -6 9 -10 14 -7z m1765 -20 c-8 -21 -23 -19 -29 4 -3 14 -1 18 9 14 8 -3 14
1 15 8 0 11 2 11 6 1 3 -7 2 -19 -1 -27z m64 4 c0 -35 -18 -36 -31 -1 -6 16
-5 20 7 15 7 -3 14 0 14 6 0 6 2 11 5 11 3 0 5 -14 5 -31z m70 22 c0 -5 -8
-17 -17 -27 -18 -18 -30 -6 -19 21 6 16 36 21 36 6z m1860 -6 c10 -12 10 -15
-4 -15 -9 0 -16 7 -16 15 0 8 2 15 4 15 2 0 9 -7 16 -15z m560 5 c-10 -6 -11
-10 -2 -10 6 0 12 -7 12 -15 0 -8 -4 -15 -10 -15 -5 0 -10 4 -10 9 0 5 -3 16
-6 25 -4 11 0 16 12 16 16 0 17 -2 4 -10z m210 -4 c0 -18 -19 -31 -28 -21 -4
4 -1 10 6 12 6 3 10 9 6 14 -3 5 0 9 5 9 6 0 11 -6 11 -14z m-8295 -6 c3 -5
-1 -10 -10 -10 -9 0 -13 5 -10 10 3 6 8 10 10 10 2 0 7 -4 10 -10z m3640 0 c3
-5 -1 -10 -9 -10 -8 0 -18 5 -21 10 -3 6 1 10 9 10 8 0 18 -4 21 -10z m60 0
c3 -5 -1 -10 -9 -10 -9 0 -16 5 -16 10 0 6 4 10 9 10 6 0 13 -4 16 -10z m640
0 c-3 -5 -12 -10 -18 -10 -7 0 -6 4 3 10 19 12 23 12 15 0z m50 -1 c12 -18 -3
-22 -20 -5 -14 14 -14 16 -1 16 8 0 18 -5 21 -11z m1080 1 c-3 -5 -12 -10 -18
-10 -7 0 -6 4 3 10 19 12 23 12 15 0z m-3460 -10 c-3 -5 -10 -10 -16 -10 -5 0
-9 5 -9 10 0 6 7 10 16 10 8 0 12 -4 9 -10z m2455 -10 c0 -4 -6 -10 -14 -13
-10 -4 -12 0 -9 14 5 18 23 18 23 -1z m-4465 -10 c3 -5 1 -10 -4 -10 -6 0 -11
5 -11 10 0 6 2 10 4 10 3 0 8 -4 11 -10z m60 0 c3 -5 -1 -10 -9 -10 -9 0 -16
5 -16 10 0 6 4 10 9 10 6 0 13 -4 16 -10z m7460 0 c3 -5 1 -10 -4 -10 -6 0
-11 5 -11 10 0 6 2 10 4 10 3 0 8 -4 11 -10z m845 -61 c0 -5 -9 -9 -20 -9 -19
0 -27 20 -13 33 7 8 33 -11 33 -24z m-8290 0 c0 -5 -7 -9 -15 -9 -15 0 -20 12
-9 23 8 8 24 -1 24 -14z m1937 -6 c-3 -3 -11 -2 -17 2 -9 6 -9 10 1 16 14 8
27 -7 16 -18z m2435 -12 c-3 -19 -9 -28 -17 -24 -8 2 -12 11 -9 19 2 8 6 21 9
30 8 26 22 7 17 -25z m1146 14 c-1 -14 -8 -25 -16 -25 -7 0 -11 3 -9 8 2 4 7
15 10 25 9 25 17 21 15 -8z m1572 10 c0 -8 -7 -15 -15 -15 -26 0 -18 20 13 29
1 1 2 -6 2 -14z m311 -8 c-13 -13 -26 -3 -16 12 3 6 11 8 17 5 6 -4 6 -10 -1
-17z m312 -17 c3 -12 0 -20 -8 -20 -14 0 -25 21 -25 47 0 21 26 0 33 -27z
m5192 12 c2 -12 0 -24 -4 -27 -10 -6 -22 35 -15 47 8 12 14 5 19 -20z m-12748
-14 c-3 -7 -5 -2 -5 12 0 14 2 19 5 13 2 -7 2 -19 0 -25z m1713 17 c-7 -9 -15
-13 -19 -10 -3 3 1 10 9 15 21 14 24 12 10 -5z m1000 5 c0 -5 -4 -10 -10 -10
-5 0 -10 5 -10 10 0 6 5 10 10 10 6 0 10 -4 10 -10z m70 -6 c0 -2 -7 -4 -15
-4 -8 0 -15 4 -15 10 0 5 7 7 15 4 8 -4 15 -8 15 -10z m65 6 c-3 -5 -12 -10
-18 -10 -7 0 -6 4 3 10 19 12 23 12 15 0z m125 0 c0 -5 -2 -10 -4 -10 -3 0 -8
5 -11 10 -3 6 -1 10 4 10 6 0 11 -4 11 -10z m4830 -5 c-7 -9 -15 -13 -17 -11
-7 7 7 26 19 26 6 0 6 -6 -2 -15z m-8027 -2 c-7 -2 -19 -2 -25 0 -7 3 -2 5 12
5 14 0 19 -2 13 -5z m8392 -13 c3 -5 1 -10 -4 -10 -6 0 -11 5 -11 10 0 6 2 10
4 10 3 0 8 -4 11 -10z m-8335 -16 c0 -2 -7 -4 -15 -4 -8 0 -15 4 -15 10 0 5 7
7 15 4 8 -4 15 -8 15 -10z m1953 9 c-7 -2 -19 -2 -25 0 -7 3 -2 5 12 5 14 0
19 -2 13 -5z m872 -3 c3 -6 -4 -10 -17 -10 -18 0 -20 2 -8 10 19 12 18 12 25
0z m240 0 c3 -5 1 -10 -4 -10 -6 0 -11 5 -11 10 0 6 2 10 4 10 3 0 8 -4 11
-10z m75 -6 c0 -2 -7 -4 -15 -4 -8 0 -15 4 -15 10 0 5 7 7 15 4 8 -4 15 -8 15
-10z m4270 0 c0 -2 -7 -4 -15 -4 -8 0 -15 4 -15 10 0 5 7 7 15 4 8 -4 15 -8
15 -10z m5480 6 c0 -5 -4 -10 -10 -10 -5 0 -10 5 -10 10 0 6 5 10 10 10 6 0
10 -4 10 -10z m-10003 -6 c-3 -3 -12 -4 -19 -1 -8 3 -5 6 6 6 11 1 17 -2 13
-5z m4323 -4 c0 -5 -5 -10 -11 -10 -5 0 -7 5 -4 10 3 6 8 10 11 10 2 0 4 -4 4
-10z m5690 -14 c0 -2 -7 -6 -15 -10 -8 -3 -15 -1 -15 4 0 6 7 10 15 10 8 0 15
-2 15 -4z m374 -17 c-3 -5 2 -6 10 -3 8 3 19 -2 25 -14 11 -20 4 -62 -10 -62
-5 0 -9 -7 -9 -15 0 -8 -4 -15 -10 -15 -5 0 -10 5 -10 11 0 5 -5 7 -11 3 -8
-4 -3 -12 12 -21 20 -11 20 -13 4 -8 -16 4 -21 0 -22 -15 -1 -13 2 -18 10 -14
8 5 8 3 0 -7 -7 -7 -13 -22 -13 -33 0 -27 -8 -17 -14 19 -3 17 -1 32 7 37 9 6
9 8 -1 8 -7 0 -10 5 -7 10 3 6 2 10 -3 10 -6 0 -17 20 -25 44 -15 45 -9 66 20
66 7 0 13 4 13 9 0 5 9 7 20 4 11 -3 17 -9 14 -14z m-10064 -17 c0 -19 -18
-42 -32 -42 -4 0 -8 14 -8 30 0 23 4 30 20 30 13 0 20 -7 20 -18z m1180 -28
c0 -37 -3 -45 -17 -42 -9 2 -16 8 -16 13 1 6 -3 16 -9 23 -8 9 -6 12 7 12 14
0 15 3 6 14 -10 11 -8 15 6 19 10 3 19 5 21 6 1 0 2 -20 2 -45z m-4384 -1 c-1
-21 -8 -48 -17 -60 -15 -21 -15 -20 -15 24 1 28 6 48 14 51 6 2 10 8 6 13 -3
5 -1 9 4 9 5 0 9 -17 8 -37z m1875 28 c6 9 9 -1 10 -31 2 -77 -1 -86 -28 -76
-17 7 -17 8 0 20 9 7 17 19 16 27 0 10 -2 11 -6 2 -7 -19 -22 -15 -18 5 2 9 4
28 5 42 1 14 4 19 7 11 5 -11 7 -11 14 0z m76 -48 c-2 -46 -6 -58 -19 -61 -15
-3 -18 4 -18 32 0 22 5 36 13 37 10 0 10 2 0 6 -21 8 -15 43 7 43 17 0 19 -6
17 -57z m10764 45 c68 0 92 -4 96 -14 7 -19 23 -18 23 2 0 8 5 12 10 9 6 -3
10 -1 10 4 0 14 47 14 55 1 4 -6 10 -8 14 -6 4 3 8 -4 8 -15 1 -11 -2 -17 -8
-14 -5 4 -9 1 -9 -4 0 -6 -8 -11 -17 -12 -11 0 -13 -3 -5 -6 18 -7 16 -63 -3
-63 -17 0 -33 28 -30 52 3 17 -37 34 -55 23 -4 -3 -33 -6 -64 -6 -34 -1 -56
-6 -56 -13 0 -7 -3 -7 -8 -1 -10 14 -76 20 -67 6 8 -13 -17 -10 -27 3 -8 12
-76 14 -105 4 -13 -4 -23 -3 -23 2 0 5 -13 7 -30 4 -26 -6 -30 -4 -30 15 0 26
28 39 42 20 7 -11 11 -11 15 -1 6 15 35 16 51 0 9 -9 12 -9 12 0 0 7 15 11 40
10 22 -1 43 2 46 5 4 4 11 4 16 1 5 -3 50 -6 99 -6z m-9955 -17 c0 -11 -5 -17
-13 -14 -17 6 -17 20 0 26 6 3 12 6 12 6 1 1 1 -7 1 -18z m9594 -1 c-9 -6 -9
-9 1 -13 8 -3 5 -6 -8 -6 -19 -1 -23 10 -14 36 1 1 8 0 17 -4 11 -4 12 -8 4
-13z m819 -16 c-6 -8 -15 -12 -19 -9 -7 4 -7 13 -1 44 1 2 8 -2 16 -9 12 -10
13 -16 4 -26z m-869 12 c0 -17 -27 -29 -35 -16 -4 6 -1 10 5 10 6 0 8 5 5 10
-3 6 1 10 9 10 9 0 16 -6 16 -14z m-10493 -18 c-3 -8 -6 -5 -6 6 -1 11 2 17 5
13 3 -3 4 -12 1 -19z m-1877 -8 c0 -5 -5 -10 -11 -10 -5 0 -7 5 -4 10 3 6 8
10 11 10 2 0 4 -4 4 -10z m2818 -3 c8 -10 6 -13 -7 -13 -11 0 -17 6 -14 13 3
7 6 13 8 13 1 0 7 -6 13 -13z m-112 -9 c5 -8 2 -9 -9 -5 -10 3 -17 2 -17 -2 0
-5 8 -12 17 -15 12 -5 13 -10 5 -18 -6 -6 -19 -8 -29 -4 -14 6 -15 9 -4 15 9
6 10 11 2 15 -6 4 -9 12 -6 17 8 13 32 11 41 -3z m-818 -23 c0 -19 -6 -25 -22
-24 -20 0 -21 1 -1 9 11 5 14 9 7 9 -10 1 -10 4 0 16 7 8 14 14 14 15 1 0 2
-11 2 -25z m-1888 6 c0 -5 -7 -11 -14 -14 -10 -4 -13 -1 -9 9 6 15 23 19 23 5z
m2752 -8 c-6 -2 -9 -10 -6 -15 4 -7 2 -8 -5 -4 -13 9 -5 26 12 25 9 0 8 -2 -1
-6z m1696 -59 c-1 -68 7 -84 45 -84 10 0 25 -6 33 -12 35 -29 65 -64 70 -83 4
-10 13 -25 20 -33 16 -15 124 -25 124 -11 0 5 10 5 23 1 12 -5 63 -7 112 -6
50 1 98 -3 107 -8 14 -6 16 -5 12 7 -5 12 -2 14 17 7 31 -11 107 -7 152 7 39
13 76 0 78 -29 1 -10 3 -10 6 3 3 13 10 16 26 11 12 -3 23 -8 25 -9 7 -6 -22
-41 -54 -65 -29 -22 -33 -31 -34 -68 0 -36 -3 -43 -17 -40 -14 3 -18 13 -18
43 0 32 -5 42 -23 50 -27 12 -39 49 -22 70 8 10 9 15 2 15 -6 0 -17 -8 -24
-18 -16 -23 -45 -34 -53 -22 -4 6 -14 6 -26 -1 -14 -7 -24 -7 -33 0 -7 6 -16
8 -19 5 -9 -9 -291 -9 -305 0 -6 3 -13 2 -17 -3 -3 -6 -12 -8 -20 -5 -9 4 -19
-4 -27 -23 -7 -15 -16 -30 -19 -33 -4 -3 -8 -14 -10 -24 -10 -50 -153 -87
-230 -61 -42 15 -93 60 -85 74 4 5 -2 14 -11 20 -14 8 -18 22 -18 74 1 65 17
103 38 90 5 -3 7 -2 4 4 -11 17 49 71 86 78 38 7 54 29 36 51 -7 9 -7 19 1 34
6 12 9 28 6 35 -6 17 2 25 25 25 15 0 18 -9 17 -66z m8147 56 c-3 -5 -1 -10 6
-10 7 0 10 -3 6 -6 -9 -9 -28 6 -22 17 4 5 8 9 11 9 3 0 2 -4 -1 -10z m150 1
c3 -5 2 -12 -3 -15 -5 -3 -9 1 -9 9 0 17 3 19 12 6z m-12675 -11 c0 -5 -5 -10
-11 -10 -5 0 -7 5 -4 10 3 6 8 10 11 10 2 0 4 -4 4 -10z m12475 -8 c-3 -3 -11
0 -18 7 -9 10 -8 11 6 5 10 -3 15 -9 12 -12z m132 2 c-3 -3 -12 -4 -19 -1 -8
3 -5 6 6 6 11 1 17 -2 13 -5z m-10789 -54 c0 -24 -3 -30 -15 -28 -9 2 -17 13
-18 25 -1 15 3 19 13 15 11 -4 14 -1 9 12 -4 9 -3 15 2 12 4 -3 8 -19 9 -36z
m64 -5 c-6 -36 -40 -34 -39 3 1 15 6 30 12 34 16 11 33 -11 27 -37z m66 1 c-2
-11 -11 -22 -20 -24 -14 -3 -18 3 -18 26 0 16 3 32 7 35 11 12 34 -15 31 -37z
m617 8 c1 -22 0 -22 -17 -7 -14 12 -15 19 -7 30 15 17 24 8 24 -23z m-2565 1
c0 -3 -9 -5 -20 -5 -11 0 -20 7 -20 15 0 13 4 14 20 5 11 -6 20 -13 20 -15z
m2506 2 c0 -14 -7 -23 -18 -23 -23 0 -23 12 0 26 16 11 16 11 0 6 -10 -3 -18
-1 -18 4 0 6 9 10 19 10 13 0 18 -7 17 -23z m10408 7 c8 -21 8 -21 -9 -28 -11
-4 -15 1 -15 19 0 28 15 33 24 9z m-12989 -4 c3 -5 -1 -10 -9 -10 -9 0 -16 5
-16 10 0 6 4 10 9 10 6 0 13 -4 16 -10z m2768 -6 c-7 -20 -29 -23 -29 -5 0 9
8 17 17 17 9 0 15 -6 12 -12z m-73 -4 c0 -5 -5 -10 -11 -10 -5 0 -7 5 -4 10 3
6 8 10 11 10 2 0 4 -4 4 -10z m-2695 -20 c3 -5 -1 -10 -10 -10 -9 0 -13 5 -10
10 3 6 8 10 10 10 2 0 7 -4 10 -10z m60 0 c3 -5 -1 -10 -9 -10 -9 0 -16 5 -16
10 0 6 4 10 9 10 6 0 13 -4 16 -10z m15 -55 c0 -8 -4 -15 -10 -15 -5 0 -7 7
-4 15 4 8 8 15 10 15 2 0 4 -7 4 -15z m1690 1 c0 -3 -4 -8 -10 -11 -5 -3 -10
-1 -10 4 0 6 5 11 10 11 6 0 10 -2 10 -4z m65 -6 c-3 -5 -14 -10 -23 -9 -14 0
-13 2 3 9 27 11 27 11 20 0z m58 3 c-7 -2 -19 -2 -25 0 -7 3 -2 5 12 5 14 0
19 -2 13 -5z m676 0 c0 -5 -4 -17 -9 -28 -8 -18 -9 -17 -9 8 -1 15 4 27 9 27
6 0 10 -3 9 -7z m9561 -3 c0 -5 -8 -10 -17 -10 -15 0 -16 2 -3 10 19 12 20 12
20 0z m-12183 -6 c-3 -3 -12 -4 -19 -1 -8 3 -5 6 6 6 11 1 17 -2 13 -5z m66
-1 c-7 -2 -19 -2 -25 0 -7 3 -2 5 12 5 14 0 19 -2 13 -5z m51 -25 c7 -5 4 -8
-6 -8 -12 0 -18 7 -17 23 0 15 2 17 6 7 3 -8 11 -18 17 -22z m1810 7 c-4 -8
-8 -15 -10 -15 -2 0 -4 7 -4 15 0 8 4 15 10 15 5 0 7 -7 4 -15z m-1864 -11 c0
-2 -7 -4 -15 -4 -8 0 -15 4 -15 10 0 5 7 7 15 4 8 -4 15 -8 15 -10z m1895 6
c-3 -5 -11 -10 -16 -10 -6 0 -7 5 -4 10 3 6 11 10 16 10 6 0 7 -4 4 -10z m-70
-82 c-1 -12 -8 -24 -16 -26 -12 -3 -12 -2 0 6 11 8 10 11 -4 20 -12 6 -16 16
-11 27 9 24 33 3 31 -27z m-1765 11 c0 -5 -6 -9 -12 -9 -8 0 -5 -7 6 -15 19
-15 19 -15 -2 -15 -18 0 -22 6 -22 30 0 22 4 28 15 24 8 -4 15 -10 15 -15z
m-70 1 c0 -5 -4 -10 -10 -10 -5 0 -10 5 -10 10 0 6 5 10 10 10 6 0 10 -4 10
-10z m257 4 c-3 -3 -12 -4 -19 -1 -8 3 -5 6 6 6 11 1 17 -2 13 -5z m2383 -14
c0 -5 -4 -10 -10 -10 -5 0 -10 5 -10 10 0 6 5 10 10 10 6 0 10 -4 10 -10z
m-2635 -20 c3 -5 -1 -10 -9 -10 -9 0 -16 5 -16 10 0 6 4 10 9 10 6 0 13 -4 16
-10z m250 0 c3 -5 2 -10 -4 -10 -5 0 -13 5 -16 10 -3 6 -2 10 4 10 5 0 13 -4
16 -10z m15430 0 c3 -5 1 -10 -4 -10 -6 0 -11 5 -11 10 0 6 2 10 4 10 3 0 8
-4 11 -10z m-10270 -8 c6 -4 16 -15 24 -25 12 -15 12 -17 -3 -11 -9 3 -22 1
-30 -5 -10 -9 -17 -7 -27 5 -11 14 -10 15 6 12 10 -1 20 3 23 11 3 8 0 11 -6
7 -6 -3 -13 -2 -17 4 -7 11 15 13 30 2z m-2702 -32 c-5 -20 -23 -26 -36 -13
-4 3 3 12 16 19 12 6 23 12 24 13 0 1 -1 -8 -4 -19z m2637 0 c0 -14 -15 -19
-29 -10 -17 10 -5 31 14 23 8 -3 15 -9 15 -13z m-5340 -9 c0 -6 -4 -13 -10
-16 -5 -3 -10 1 -10 9 0 9 5 16 10 16 6 0 10 -4 10 -9z m1825 -8 c-2 -10 -4
-21 -4 -25 -1 -5 -9 -8 -18 -8 -14 0 -15 2 -4 9 9 6 10 11 2 15 -14 9 -5 26
14 26 7 0 12 -8 10 -17z m930 7 c-3 -5 -10 -10 -16 -10 -5 0 -9 5 -9 10 0 6 7
10 16 10 8 0 12 -4 9 -10z m9994 1 c8 -5 24 -6 37 -1 17 7 23 5 27 -11 3 -11
14 -19 27 -19 11 0 19 -4 16 -9 -3 -5 9 -23 27 -41 19 -18 33 -41 32 -53 -2
-30 28 -56 59 -50 26 5 36 -10 14 -23 -7 -5 -8 -2 -3 7 6 11 5 11 -5 2 -7 -6
-19 -9 -26 -6 -8 3 -14 -1 -14 -11 0 -9 -6 -16 -14 -16 -21 0 -27 -49 -7 -60
9 -5 11 -10 4 -10 -6 0 -13 -6 -16 -12 -2 -7 -3 -5 -2 5 4 24 -16 21 -22 -3
-3 -12 -20 -27 -39 -35 -24 -10 -33 -21 -36 -42 -4 -34 -32 -38 -36 -6 -4 30
-20 30 -24 1 -4 -30 -38 -37 -38 -9 0 24 -18 28 -26 6 -10 -26 -37 -18 -32 10
4 19 0 26 -23 34 -15 5 -38 21 -50 35 -12 14 -28 22 -38 19 -12 -4 -13 -3 -3
5 11 8 11 17 -1 53 -10 29 -12 51 -6 67 5 13 9 33 9 44 0 11 16 35 35 54 22
21 30 34 22 37 -6 3 0 6 14 6 15 1 32 7 39 15 10 13 25 18 75 24 6 1 16 -2 24
-7z m-12684 -11 c3 -5 -3 -10 -14 -10 -12 0 -21 5 -21 10 0 6 6 10 14 10 8 0
18 -4 21 -10z m180 0 c3 -5 -1 -10 -9 -10 -9 0 -16 5 -16 10 0 6 4 10 9 10 6
0 13 -4 16 -10z m1508 -10 c-3 -11 -7 -20 -9 -20 -2 0 -4 9 -4 20 0 11 4 20 9
20 5 0 7 -9 4 -20z m11117 10 c0 -5 -4 -10 -9 -10 -6 0 -13 5 -16 10 -3 6 1
10 9 10 9 0 16 -4 16 -10z m2249 -3 c8 -10 7 -14 -4 -14 -8 0 -16 6 -19 14 -7
17 8 17 23 0z m571 -7 c9 -17 8 -20 -10 -20 -13 0 -20 7 -20 20 0 11 4 20 10
20 5 0 14 -9 20 -20z m-15690 -26 c0 -2 -7 -4 -15 -4 -8 0 -15 4 -15 10 0 5 7
7 15 4 8 -4 15 -8 15 -10z m60 6 c12 -8 11 -10 -7 -10 -13 0 -23 5 -23 10 0
13 11 13 30 0z m190 -6 c0 -2 -7 -4 -15 -4 -8 0 -15 4 -15 10 0 5 7 7 15 4 8
-4 15 -8 15 -10z m14757 0 c-3 -3 -12 -4 -19 -1 -8 3 -5 6 6 6 11 1 17 -2 13
-5z m120 0 c-3 -3 -12 -4 -19 -1 -8 3 -5 6 6 6 11 1 17 -2 13 -5z m-13302 -64
c-2 -23 -15 -40 -15 -19 0 12 -2 11 -10 -1 -7 -11 -8 -7 -6 15 5 37 3 35 19
29 8 -3 13 -14 12 -24z m65 17 c0 -7 -6 -19 -12 -26 -11 -11 -10 -12 1 -6 9 5
12 3 9 -6 -8 -24 -33 -16 -34 11 -1 14 0 28 3 33 7 12 33 8 33 -6z m438 -20
c3 -22 -1 -27 -17 -27 -15 0 -21 6 -21 23 0 46 33 49 38 4z m59 22 c16 -16 4
-49 -18 -49 -14 0 -17 6 -15 28 2 15 4 28 5 30 3 6 18 1 28 -9z m186 3 c3 7 5
-2 4 -19 0 -18 -4 -33 -9 -33 -4 0 -11 0 -15 0 -5 0 -9 14 -10 31 -3 26 -1 29
11 20 11 -9 15 -9 19 1z m-2580 -9 c4 -3 2 -12 -4 -20 -9 -10 -8 -13 0 -13 7
0 9 -4 6 -10 -12 -20 -24 -10 -23 20 1 29 8 37 21 23z m72 -3 c3 -6 -1 -13
-10 -16 -13 -5 -14 -9 -4 -15 8 -4 10 -11 7 -14 -12 -12 -28 6 -28 31 0 24 23
34 35 14z m189 -16 c4 -9 2 -12 -5 -8 -6 4 -15 1 -19 -6 -5 -7 -7 -3 -7 13 0
27 21 28 31 1z m2374 9 c-2 -9 -8 -18 -15 -20 -7 -3 -9 3 -6 16 6 25 26 28 21
4z m13444 -5 c-6 -6 -15 -8 -19 -4 -4 4 -1 11 7 16 19 12 27 3 12 -12z
m-14312 -10 c0 -19 -2 -20 -10 -8 -13 19 -13 30 0 30 6 0 10 -10 10 -22z
m13473 -3 c-7 -21 -12 -19 -10 4 0 11 5 18 9 15 4 -3 5 -11 1 -19z m262 15 c3
-5 1 -10 -4 -10 -6 0 -11 5 -11 10 0 6 2 10 4 10 3 0 8 -4 11 -10z m-13485
-88 c-17 -6 -42 7 -35 18 4 6 13 5 26 -3 10 -6 15 -13 9 -15z m13160 12 c0
-14 3 -14 15 -4 9 8 15 9 15 2 0 -18 -20 -24 -35 -12 -17 14 -20 30 -5 30 6 0
10 -7 10 -16z m272 -16 c-8 -8 -9 -4 -5 13 4 13 8 18 11 10 2 -7 -1 -18 -6
-23z m323 12 c0 -8 -10 -16 -22 -18 -22 -3 -32 16 -16 32 12 11 38 2 38 -14z
m-15695 -5 c0 -8 -8 -15 -17 -15 -16 -1 -16 -2 1 -15 19 -15 19 -15 -2 -15
-18 0 -22 6 -22 30 0 23 4 30 20 30 11 0 20 -7 20 -15z m1820 -19 c0 -16 -3
-26 -7 -22 -4 4 -8 15 -8 24 0 9 -6 16 -12 15 -7 -2 -13 1 -13 6 0 6 9 9 20 8
15 -1 20 -8 20 -31z m60 16 c0 -26 -11 -34 -27 -21 -20 17 -16 39 7 39 13 0
20 -7 20 -18z m128 -7 c-2 -11 -11 -21 -20 -23 -13 -3 -18 3 -18 22 0 19 5 24
20 23 15 -1 20 -7 18 -22z m122 18 c0 -5 -7 -16 -14 -26 -13 -17 -14 -16 -19
2 -3 11 -2 22 1 25 8 9 32 7 32 -1z m70 0 c-1 -9 -25 -43 -31 -43 -3 0 -6 11
-7 25 -1 19 3 25 18 25 11 0 20 -3 20 -7z m60 3 c0 -2 -9 -6 -20 -9 -11 -3
-20 -1 -20 4 0 5 9 9 20 9 11 0 20 -2 20 -4z m57 -11 c-4 -8 -2 -17 4 -20 15
-10 1 -24 -19 -19 -24 7 -23 54 2 54 12 0 16 -5 13 -15z m183 5 c8 13 10 13
10 -1 0 -9 -6 -22 -14 -28 -11 -9 -15 -8 -20 5 -10 25 -7 41 4 24 9 -13 11
-13 20 0z m12570 0 c0 -5 -4 -10 -10 -10 -5 0 -10 5 -10 10 0 6 5 10 10 10 6
0 10 -4 10 -10z m370 -12 c0 -6 -6 -8 -14 -5 -9 4 -17 -1 -19 -11 -3 -10 -5
-6 -6 10 -1 21 3 25 19 21 11 -3 20 -10 20 -15z m119 1 c-22 -13 -31 -11 -17
5 7 8 17 12 22 9 4 -3 2 -9 -5 -14z m69 9 c-3 -7 -12 -14 -21 -16 -12 -2 -15
1 -11 12 7 19 38 22 32 4z m368 -3 c14 -13 13 -15 -5 -15 -12 0 -21 6 -21 15
0 8 3 15 6 15 3 0 12 -7 20 -15z m61 8 c-9 -2 -14 -9 -11 -15 4 -7 2 -8 -5 -4
-15 10 -4 26 17 25 15 -1 15 -2 -1 -6z m133 -2 c0 -14 -29 -21 -36 -9 -4 6 -3
8 4 4 6 -3 13 -2 17 4 8 12 15 13 15 1z m-16256 -13 c-3 -4 -12 -8 -20 -8 -8
0 -14 4 -14 8 0 4 9 8 19 8 11 0 17 -4 15 -8z m2628 0 c-9 -9 -15 -9 -24 0 -9
9 -7 12 12 12 19 0 21 -3 12 -12z m12378 8 c0 -3 -4 -8 -10 -11 -5 -3 -10 -1
-10 4 0 6 5 11 10 11 6 0 10 -2 10 -4z m40 -6 c0 -5 -5 -10 -11 -10 -5 0 -7 5
-4 10 3 6 8 10 11 10 2 0 4 -4 4 -10z m184 -6 c3 -8 2 -12 -4 -9 -6 3 -10 10
-10 16 0 14 7 11 14 -7z m583 -5 c-17 -28 -35 -31 -33 -6 0 15 8 23 23 23 19
2 20 -1 10 -17z m-13807 -9 c0 -5 -7 -10 -15 -10 -8 0 -15 5 -15 10 0 6 7 10
15 10 8 0 15 -4 15 -10z m187 -12 c-3 -8 -6 -5 -6 6 -1 11 2 17 5 13 3 -3 4
-12 1 -19z m113 18 c0 -3 -4 -8 -10 -11 -5 -3 -10 -1 -10 4 0 6 5 11 10 11 6
0 10 -2 10 -4z m17 -18 c-3 -8 -6 -5 -6 6 -1 11 2 17 5 13 3 -3 4 -12 1 -19z
m-2332 2 c3 -5 -1 -10 -9 -10 -9 0 -16 5 -16 10 0 6 4 10 9 10 6 0 13 -4 16
-10z m252 -6 c-3 -3 -12 -4 -19 -1 -8 3 -5 6 6 6 11 1 17 -2 13 -5z m-194 -65
c-16 -5 -16 -7 1 -16 12 -7 15 -13 7 -17 -18 -11 -31 3 -31 35 0 27 2 28 20
17 18 -12 18 -13 3 -19z m1941 19 c-5 -8 -2 -9 11 -4 15 5 16 4 5 -9 -8 -10
-17 -12 -23 -6 -9 9 -2 31 9 31 3 0 2 -5 -2 -12z m69 6 c-7 -3 -9 -13 -6 -22
5 -13 3 -14 -7 -5 -14 13 -5 33 13 32 9 0 9 -2 0 -5z m57 -4 c-12 -8 -12 -10
-1 -10 8 0 12 -3 8 -6 -9 -9 -28 6 -22 17 4 5 12 9 18 9 7 0 6 -4 -3 -10z m75
-11 c-4 -5 -12 -9 -18 -8 -9 0 -8 2 1 6 6 2 9 10 6 15 -4 7 -2 8 5 4 6 -4 9
-12 6 -17z m131 10 c10 -17 -13 -36 -27 -22 -12 12 -4 33 11 33 5 0 12 -5 16
-11z m62 -25 c2 -22 0 -26 -7 -14 -9 13 -11 12 -11 -3 0 -10 -4 -16 -9 -12 -8
4 -8 31 -2 63 1 2 7 2 14 0 6 -3 13 -18 15 -34z m188 3 c1 -15 -2 -27 -7 -27
-6 0 -7 5 -4 10 3 6 2 10 -4 10 -5 0 -12 -6 -14 -12 -4 -10 -2 30 2 50 1 2 6
2 12 0 7 -2 13 -16 15 -31z m9539 24 c3 -5 2 -12 -3 -15 -5 -3 -9 1 -9 9 0 17
3 19 12 6z m-12115 -11 c12 -8 11 -10 -7 -10 -13 0 -23 5 -23 10 0 13 11 13
30 0z m245 0 c3 -5 -1 -10 -9 -10 -9 0 -16 5 -16 10 0 6 4 10 9 10 6 0 13 -4
16 -10z m1635 -5 c0 -12 -19 -12 -23 0 -4 9 -1 12 9 8 7 -3 14 -7 14 -8z
m-1943 -1 c-3 -3 -12 -4 -19 -1 -8 3 -5 6 6 6 11 1 17 -2 13 -5z m61 -32 c2
-7 -2 -10 -12 -6 -9 3 -16 11 -16 16 0 13 23 5 28 -10z m2332 6 c0 -4 -9 -8
-20 -8 -11 0 -20 4 -20 8 0 4 9 8 20 8 11 0 20 -4 20 -8z m-2393 -4 c-3 -3
-12 -4 -19 -1 -8 3 -5 6 6 6 11 1 17 -2 13 -5z m310 0 c-3 -3 -12 -4 -19 -1
-8 3 -5 6 6 6 11 1 17 -2 13 -5z m12623 -60 c0 -13 1 -27 3 -31 1 -3 -8 -7
-20 -8 -17 -1 -22 5 -25 29 -3 26 0 31 19 32 18 2 23 -3 23 -22z m-12930 6 c0
-5 -4 -10 -10 -10 -5 0 -10 5 -10 10 0 6 5 10 10 10 6 0 10 -4 10 -10z m64 1
c3 -4 3 -11 0 -14 -8 -8 -34 3 -34 14 0 11 27 12 34 0z m66 -6 c0 -9 -6 -12
-15 -9 -20 8 -19 -6 3 -22 16 -12 15 -13 -5 -14 -19 0 -23 5 -23 30 0 23 4 30
20 30 11 0 20 -7 20 -15z m188 -4 c3 -8 0 -11 -6 -7 -6 3 -13 2 -17 -4 -3 -5
-1 -10 4 -10 6 0 11 -4 11 -10 0 -5 -7 -10 -15 -10 -10 0 -15 10 -15 31 0 23
4 30 17 27 9 -2 18 -9 21 -17z m2132 11 c0 -4 -9 -8 -20 -8 -11 0 -20 4 -20 8
0 4 9 8 20 8 11 0 20 -4 20 -8z m180 -6 c0 -8 -4 -17 -9 -20 -10 -7 -23 19
-14 28 11 11 23 6 23 -8z m10050 7 c0 -10 -20 -40 -20 -31 0 3 -3 13 -6 22 -4
11 -1 16 10 16 9 0 16 -3 16 -7z m295 -3 c3 -5 1 -10 -4 -10 -6 0 -11 5 -11
10 0 6 2 10 4 10 3 0 8 -4 11 -10z m-10520 -30 c3 -5 1 -10 -4 -10 -6 0 -11 5
-11 10 0 6 2 10 4 10 3 0 8 -4 11 -10z m-2460 -10 c3 -5 -1 -10 -10 -10 -9 0
-13 5 -10 10 3 6 8 10 10 10 2 0 7 -4 10 -10z m65 0 c0 -5 -7 -10 -15 -10 -8
0 -15 5 -15 10 0 6 7 10 15 10 8 0 15 -4 15 -10z m300 0 c0 -5 -2 -10 -4 -10
-3 0 -8 5 -11 10 -3 6 -1 10 4 10 6 0 11 -4 11 -10z m2075 -50 c-17 -7 -17 -9
-2 -9 23 -1 22 -17 -1 -23 -14 -4 -18 0 -16 16 1 12 3 22 3 24 1 1 9 2 19 1
14 0 14 -2 -3 -9z m198 4 c3 -3 3 -12 0 -20 -6 -16 -33 -19 -33 -4 0 6 5 10
11 10 5 0 7 5 4 10 -7 11 8 14 18 4z m10237 -4 c0 -5 -7 -7 -15 -4 -8 4 -15 8
-15 10 0 2 7 4 15 4 8 0 15 -4 15 -10z m50 0 c-20 -13 -33 -13 -25 0 3 6 14
10 23 10 15 0 15 -2 2 -10z m-747 -15 c-3 -9 -8 -14 -10 -11 -3 3 -2 9 2 15 9
16 15 13 8 -4z m626 -9 c10 -12 8 -13 -8 -9 -12 3 -21 9 -21 14 0 14 16 11 29
-5z m131 5 c0 -5 -9 -11 -21 -14 -16 -4 -18 -3 -8 9 13 16 29 19 29 5z
m-10233 -7 c-3 -3 -12 -4 -19 -1 -8 3 -5 6 6 6 11 1 17 -2 13 -5z m10040 0
c-3 -3 -12 -4 -19 -1 -8 3 -5 6 6 6 11 1 17 -2 13 -5z"/>
<path d="M12165 9680 c3 -5 8 -10 11 -10 2 0 4 5 4 10 0 6 -5 10 -11 10 -5 0
-7 -4 -4 -10z"/>
<path d="M3037 2699 c7 -7 15 -10 18 -7 3 3 -2 9 -12 12 -14 6 -15 5 -6 -5z"/>
<path d="M8280 1385 c0 -8 5 -15 10 -15 6 0 10 7 10 15 0 8 -4 15 -10 15 -5 0
-10 -7 -10 -15z"/>
<path d="M1050 899 c0 -5 5 -7 10 -4 6 3 10 8 10 11 0 2 -4 4 -10 4 -5 0 -10
-5 -10 -11z"/>
<path d="M13950 910 c0 -5 5 -10 11 -10 5 0 7 5 4 10 -3 6 -8 10 -11 10 -2 0
-4 -4 -4 -10z"/>
<path d="M5350 662 c-23 -12 -43 -34 -58 -66 -20 -40 -21 -52 -12 -87 12 -45
64 -98 96 -99 11 0 25 -5 30 -10 7 -7 19 -8 36 -1 14 5 29 7 32 4 3 -4 14 1
23 9 10 8 26 18 36 21 16 6 25 21 41 74 6 18 4 21 -16 16 -13 -4 -27 -12 -31
-20 -7 -11 -12 -11 -23 -3 -10 9 -17 8 -29 -4 -20 -20 -64 -20 -89 -1 -16 12
-18 44 -7 103 1 1 7 2 15 2 19 0 30 48 15 66 -15 18 -17 18 -59 -4z"/>
<path d="M5462 663 c-9 -19 -4 -46 13 -74 11 -17 75 -32 92 -21 17 12 -15 71
-50 92 -39 24 -44 25 -55 3z"/>
<path d="M6070 550 c-8 -5 -10 -10 -5 -10 6 0 17 5 25 10 8 5 11 10 5 10 -5 0
-17 -5 -25 -10z"/>
<path d="M13670 457 c-32 -15 -41 -27 -37 -52 1 -14 -5 -21 -19 -23 -20 -3
-34 -27 -34 -59 0 -8 13 -13 30 -13 21 0 30 -5 30 -16 0 -11 -6 -14 -20 -9
-28 9 -26 -14 4 -43 l24 -23 7 21 c6 18 12 20 38 15 l32 -7 -37 28 c-41 30
-45 40 -24 69 11 15 11 21 1 32 -7 7 -12 21 -10 30 2 10 4 21 4 24 1 3 24 6
51 6 35 0 50 -3 50 -13 0 -7 5 -16 10 -19 6 -4 10 -3 9 2 -4 21 2 33 16 33 27
0 15 17 -16 24 -45 9 -80 6 -109 -7z m-30 -127 c0 -5 -12 -10 -26 -10 -14 0
-23 4 -19 10 3 6 15 10 26 10 10 0 19 -4 19 -10z"/>
<path d="M13825 420 c2 -27 10 -33 12 -10 1 11 -2 22 -6 24 -4 3 -7 -4 -6 -14z"/>
<path d="M13788 263 c7 -3 16 -2 19 1 4 3 -2 6 -13 5 -11 0 -14 -3 -6 -6z"/>
<path d="M13756 247 c3 -10 9 -15 12 -12 3 3 0 11 -7 18 -10 9 -11 8 -5 -6z"/>
<path d="M721 2984 c-18 -8 -30 -18 -26 -24 3 -5 -3 -10 -13 -10 -31 0 -44
-25 -46 -90 -2 -70 4 -84 36 -85 16 0 23 -6 23 -20 0 -35 78 -59 115 -35 13 8
12 10 -2 10 -12 0 -18 8 -18 25 0 15 -6 25 -14 25 -16 0 -29 -27 -20 -41 3 -5
-3 -9 -14 -9 -15 0 -19 6 -16 28 4 32 -26 101 -43 102 -7 0 -13 -4 -13 -10 0
-5 5 -10 10 -10 6 0 10 -4 10 -10 0 -5 -7 -10 -16 -10 -11 0 -14 8 -12 28 2
21 9 28 31 30 21 3 29 10 33 32 6 26 8 28 31 17 19 -8 26 -8 33 2 4 8 13 10
19 7 6 -4 9 -12 6 -17 -4 -5 1 -16 9 -25 9 -8 16 -24 16 -35 0 -12 7 -19 20
-19 14 0 19 -6 17 -19 -1 -11 3 -20 8 -20 17 -1 25 52 14 87 -9 26 -16 33 -30
29 -14 -4 -19 0 -19 16 0 34 -12 45 -56 55 -30 7 -50 6 -73 -4z m39 -30 c0 -2
-7 -4 -15 -4 -8 0 -15 4 -15 10 0 5 7 7 15 4 8 -4 15 -8 15 -10z m55 6 c3 -5
-1 -10 -9 -10 -9 0 -16 5 -16 10 0 6 4 10 9 10 6 0 13 -4 16 -10z m-120 -30
c3 -5 -1 -10 -9 -10 -9 0 -16 5 -16 10 0 6 4 10 9 10 6 0 13 -4 16 -10z m193
-61 c-2 -6 -8 -10 -13 -10 -5 0 -11 4 -13 10 -2 6 4 11 13 11 9 0 15 -5 13
-11z"/>
<path d="M1518 2993 c-10 -2 -18 -8 -18 -13 0 -5 -10 -10 -22 -12 -13 -2 -24
-11 -26 -21 -2 -11 -12 -27 -23 -38 -10 -10 -19 -31 -19 -45 0 -21 3 -24 21
-19 16 5 20 3 16 -6 -2 -8 -10 -13 -16 -11 -12 2 -15 -20 -4 -31 9 -10 53 41
53 62 0 21 22 43 65 65 17 9 24 16 18 16 -7 0 -13 5 -13 10 0 19 19 10 26 -12
9 -33 34 -58 56 -58 10 0 18 -4 18 -10 0 -5 -7 -10 -16 -10 -8 0 -13 -4 -10
-9 3 -5 -6 -21 -19 -35 -14 -15 -25 -33 -25 -41 0 -16 -18 -30 -28 -20 -3 3 0
11 8 16 12 9 12 10 -2 5 -10 -3 -18 -1 -18 4 0 6 -4 10 -10 10 -5 0 -10 -10
-10 -23 0 -13 -5 -28 -11 -34 -8 -8 -5 -13 11 -18 26 -8 90 2 90 14 0 5 10 11
23 15 12 3 30 19 40 37 19 34 23 64 7 54 -5 -3 -10 -1 -10 4 0 6 8 11 18 11
16 1 16 1 -1 14 -13 10 -14 15 -6 18 10 3 8 13 -7 39 -19 32 -42 40 -36 12 5
-22 -15 -14 -21 7 -3 11 0 20 5 20 6 0 1 9 -12 20 -22 19 -53 23 -92 13z m-1
-50 c1 -19 -1 -22 -8 -12 -6 10 -9 10 -9 2 0 -7 -4 -13 -9 -13 -15 0 -7 34 9
42 8 4 15 7 15 7 0 1 1 -11 2 -26z m-70 -69 c-3 -3 -12 -4 -19 -1 -8 3 -5 6 6
6 11 1 17 -2 13 -5z m190 -90 c-3 -3 -12 -4 -19 -1 -8 3 -5 6 6 6 11 1 17 -2
13 -5z m-2 -24 c3 -5 -1 -10 -9 -10 -9 0 -16 5 -16 10 0 6 4 10 9 10 6 0 13
-4 16 -10z m-55 -20 c0 -5 -10 -10 -22 -9 -22 0 -22 1 -3 9 11 5 21 9 23 9 1
1 2 -3 2 -9z"/>
<path d="M805 2780 c3 -5 8 -10 11 -10 2 0 4 5 4 10 0 6 -5 10 -11 10 -5 0 -7
-4 -4 -10z"/>
<path d="M815 2760 c-19 -7 -19 -7 3 -14 26 -9 41 -1 26 13 -5 5 -18 5 -29 1z"/>
<path d="M1467 2753 c-3 -5 6 -9 20 -10 19 -1 22 1 12 8 -17 11 -26 11 -32 2z"/>
<path d="M3195 1672 c-33 -4 -65 -32 -65 -57 0 -8 6 -15 13 -15 8 0 7 -4 -3
-10 -13 -9 -13 -11 0 -20 10 -6 11 -10 3 -10 -8 0 -13 -13 -13 -30 0 -16 4
-30 9 -30 5 0 4 -16 -2 -36 -9 -29 -8 -37 4 -45 12 -8 12 -10 -1 -19 -13 -9
-13 -11 0 -20 10 -6 11 -10 3 -10 -15 0 -17 -36 -3 -45 6 -3 10 -15 10 -26 0
-11 -4 -18 -8 -15 -4 2 -9 -9 -10 -25 -1 -16 2 -29 8 -29 5 0 10 -5 10 -11 0
-5 -4 -7 -10 -4 -5 3 -10 2 -10 -4 0 -5 6 -12 13 -15 10 -5 10 -7 0 -12 -15
-7 -17 -44 -3 -44 6 0 10 -13 10 -30 0 -16 -4 -30 -10 -30 -5 0 -10 -7 -10
-15 0 -8 5 -15 10 -15 6 0 10 -11 10 -25 0 -14 -4 -25 -10 -25 -13 0 -13 -37
0 -45 7 -4 10 -39 9 -84 -2 -42 0 -82 4 -88 4 -6 0 -18 -8 -26 -30 -31 -9 -44
58 -37 9 1 16 -4 15 -11 -2 -6 3 -14 10 -16 6 -3 12 2 12 11 0 9 8 16 20 16
16 0 20 -7 20 -36 0 -23 -4 -33 -11 -28 -6 3 -3 -9 6 -27 22 -43 28 -49 23
-24 -4 24 30 34 37 11 15 -49 18 -51 24 -21 7 36 33 40 41 6 8 -34 32 -41 26
-8 -3 19 1 26 15 30 23 6 26 47 3 47 -8 0 -12 5 -9 10 3 6 2 10 -4 10 -6 0 -7
8 -4 17 4 11 8 12 11 5 2 -7 8 -12 13 -12 6 0 7 5 4 10 -3 6 -2 10 4 10 6 0 8
7 5 15 -4 8 -12 15 -20 15 -17 0 -18 22 -1 39 10 11 10 13 0 7 -7 -4 -13 -3
-13 3 0 5 10 11 23 14 22 4 22 4 -3 15 -14 6 -18 11 -10 12 13 0 13 1 0 10
-13 8 -12 10 3 10 10 0 15 5 12 10 -4 6 -11 8 -16 5 -5 -4 -9 0 -10 7 0 7 -2
25 -4 40 -2 16 2 29 10 32 10 3 12 0 8 -12 -4 -10 -2 -14 3 -9 10 10 13 96 3
94 -4 -1 -7 3 -7 8 0 6 4 9 9 7 5 -1 9 7 9 18 0 11 -7 20 -15 20 -8 0 -15 6
-15 14 0 8 -3 21 -6 30 -4 11 0 16 14 16 18 0 21 6 19 40 -1 41 -12 53 -20 23
-4 -14 -5 -14 -6 3 -1 14 6 24 19 27 25 6 27 37 3 37 -15 0 -16 2 -3 10 11 7
11 10 2 10 -10 0 -10 5 2 22 18 25 21 68 6 68 -6 0 -5 12 3 33 13 32 4 77 -16
77 -5 0 -1 7 7 16 19 18 21 61 4 66 -10 4 -10 10 0 32 13 29 2 65 -21 67 -57
3 -218 3 -242 1z m139 -70 c2 -4 -4 -8 -14 -8 -10 0 -16 4 -14 8 3 4 9 8 14 8
5 0 11 -4 14 -8z m109 -12 c-3 -11 -7 -20 -9 -20 -2 0 -4 9 -4 20 0 11 4 20 9
20 5 0 7 -9 4 -20z m-239 -16 c3 -8 2 -12 -4 -9 -6 3 -10 10 -10 16 0 14 7 11
14 -7z m6 -78 c0 -3 -4 -8 -10 -11 -5 -3 -10 -1 -10 4 0 6 5 11 10 11 6 0 10
-2 10 -4z m120 -6 c0 -5 -4 -10 -10 -10 -5 0 -10 5 -10 10 0 6 5 10 10 10 6 0
10 -4 10 -10z m-127 -97 c-3 -7 -6 -13 -8 -13 -2 0 -5 6 -8 13 -3 8 1 14 8 14
7 0 11 -6 8 -14z m-3 -74 c3 7 7 -2 7 -19 0 -21 -5 -30 -16 -30 -14 0 -14 2
-1 10 10 6 11 10 3 10 -7 0 -13 10 -12 23 0 12 3 16 6 8 4 -9 7 -10 13 -2z
m190 -19 c0 -5 -5 -10 -11 -10 -5 0 -7 5 -4 10 3 6 8 10 11 10 2 0 4 -4 4 -10z
m-55 -9 c7 -12 -12 -24 -25 -16 -11 7 -4 25 10 25 5 0 11 -4 15 -9z m-68 -17
c-3 -3 -12 -4 -19 -1 -8 3 -5 6 6 6 11 1 17 -2 13 -5z m-77 -48 c0 -3 -4 -8
-10 -11 -5 -3 -10 -1 -10 4 0 6 5 11 10 11 6 0 10 -2 10 -4z m80 -3 c0 -5 -7
-17 -16 -28 -14 -19 -14 -19 -10 5 2 14 5 26 5 28 2 6 21 1 21 -5z m70 -5 c0
-4 -9 -8 -20 -8 -11 0 -20 4 -20 8 0 4 9 8 20 8 11 0 20 -4 20 -8z m-130 -28
c0 -5 -7 -7 -15 -4 -8 4 -15 8 -15 10 0 2 7 4 15 4 8 0 15 -4 15 -10z m123 3
c-7 -2 -19 -2 -25 0 -7 3 -2 5 12 5 14 0 19 -2 13 -5z m-122 -65 c-1 -5 -1
-17 -1 -28 0 -13 -6 -20 -17 -19 -11 0 -13 3 -6 6 10 3 9 8 -2 20 -8 8 -12 19
-9 24 7 11 35 8 35 -3z m63 -18 c0 -17 -6 -26 -19 -27 -20 -3 -20 -3 0 6 17 8
18 10 3 10 -10 1 -18 6 -18 11 0 6 8 10 18 11 15 0 14 2 -3 10 -20 9 -20 9 0
6 13 -1 19 -10 19 -27z m41 20 c-3 -5 -2 -10 4 -10 5 0 12 6 14 13 3 6 6 8 6
2 0 -5 -4 -17 -9 -25 -9 -13 -11 -13 -20 0 -13 20 -13 30 1 30 5 0 7 -4 4 -10z
m85 -10 c0 -12 -7 -20 -17 -21 -16 0 -15 -2 2 -10 20 -9 20 -9 0 -6 -17 2 -23
21 -16 52 3 15 31 2 31 -15z m-188 -100 c4 -25 1 -29 -16 -26 -19 3 -22 10
-17 46 3 23 29 8 33 -20z m126 12 c2 -7 -6 -12 -17 -12 -21 0 -27 11 -14 24 9
9 26 2 31 -12z m-63 -2 c3 -5 0 -10 -7 -10 -9 0 -9 -3 2 -10 12 -8 11 -10 -7
-10 -16 0 -23 6 -23 20 0 21 24 28 35 10z m122 4 c-3 -3 -12 -4 -19 -1 -8 3
-5 6 6 6 11 1 17 -2 13 -5z m-64 -31 c-7 -2 -19 -2 -25 0 -7 3 -2 5 12 5 14 0
19 -2 13 -5z m67 -2 c0 -5 -9 -7 -20 -4 -11 3 -20 7 -20 9 0 2 9 4 20 4 11 0
20 -4 20 -9z m-193 -79 c1 -15 3 -42 5 -59 4 -29 1 -33 -19 -33 -14 0 -23 6
-23 15 0 8 6 15 13 15 9 0 9 2 0 8 -14 9 -13 74 2 84 13 10 20 1 22 -30z m167
23 c-4 -8 -2 -15 4 -15 6 0 12 6 14 12 3 7 5 -11 7 -40 1 -44 -1 -52 -16 -53
-16 0 -15 -2 2 -9 15 -6 16 -9 4 -9 -26 -1 -30 11 -12 32 15 17 15 19 2 15
-13 -5 -15 2 -13 36 2 45 2 46 9 46 2 0 2 -7 -1 -15z m-98 -35 c-1 -28 -5 -39
-13 -35 -7 2 -13 0 -13 -4 0 -5 7 -11 15 -15 21 -8 19 -26 -4 -26 -22 0 -28
23 -22 83 2 27 8 37 20 37 14 0 17 -8 17 -40z m64 29 c0 -5 -4 -7 -10 -4 -6 3
-7 -1 -4 -9 4 -10 1 -16 -8 -16 -7 0 -14 9 -15 20 -1 14 4 20 18 20 10 0 19
-5 19 -11z m-2 -82 c3 -22 -1 -27 -17 -27 -15 0 -21 6 -21 23 0 46 33 49 38 4z
m-133 -45 c6 -4 9 -14 9 -22 -1 -8 -2 -21 -3 -27 0 -7 -9 -13 -19 -13 -12 0
-18 9 -20 26 -3 39 10 53 33 36z m70 -28 c0 -22 -5 -29 -20 -29 -21 0 -28 30
-11 53 14 20 31 8 31 -24z m125 17 c0 -4 -9 -7 -20 -7 -20 0 -25 7 -14 19 7 7
34 -2 34 -12z m-60 -21 c0 -22 -5 -30 -18 -30 -26 0 -30 6 -24 35 7 38 42 34
42 -5z m58 -13 c2 -10 -3 -17 -12 -17 -18 0 -29 16 -21 31 9 14 29 6 33 -14z
m-60 -80 c3 -21 -1 -26 -17 -24 -14 1 -21 8 -21 22 0 44 33 45 38 2z m55 16
c-7 -2 -19 -2 -25 0 -7 3 -2 5 12 5 14 0 19 -2 13 -5z m8 -23 c5 0 9 -4 9 -10
0 -5 -11 -10 -25 -10 -16 0 -25 6 -25 16 0 11 5 14 16 10 9 -3 20 -6 25 -6z"/>
<path d="M3370 900 c0 -5 5 -10 10 -10 6 0 10 5 10 10 0 6 -4 10 -10 10 -5 0
-10 -4 -10 -10z"/>
<path d="M3310 870 c0 -5 5 -10 10 -10 6 0 10 5 10 10 0 6 -4 10 -10 10 -5 0
-10 -4 -10 -10z"/>
<path d="M3845 1668 c-6 -15 -35 -21 -35 -6 0 4 -7 8 -15 8 -8 0 -15 -4 -15
-10 0 -14 -37 -12 -43 3 -4 9 -8 8 -16 -3 -10 -13 -12 -13 -21 0 -9 13 -10 13
-10 0 0 -10 -3 -11 -8 -4 -4 7 -37 12 -76 13 -55 1 -71 -2 -82 -16 -16 -21
-19 -57 -4 -48 6 3 10 -5 10 -19 0 -14 -5 -28 -10 -31 -11 -7 -8 -54 4 -74 4
-5 2 -12 -3 -15 -8 -5 -7 -97 2 -159 2 -15 0 -30 -4 -33 -15 -9 -10 -34 6 -34
17 0 26 17 29 54 0 13 5 22 10 19 4 -3 12 1 18 8 7 11 8 9 6 -6 -2 -12 3 -20
12 -20 9 0 14 7 12 18 -2 11 4 17 18 17 11 0 20 -7 20 -15 0 -8 7 -15 15 -15
8 0 15 7 15 15 0 13 4 12 22 -5 12 -11 25 -20 29 -20 4 0 16 -3 26 -7 17 -7
17 -6 1 11 -24 23 -23 36 3 36 16 0 19 -4 14 -20 -5 -15 3 -29 27 -53 18 -17
40 -50 49 -72 l17 -40 186 -3 186 -2 0 80 c0 79 0 80 -26 80 -14 0 -34 5 -45
10 -13 7 -19 7 -19 0 0 -5 -7 -10 -15 -10 -8 0 -15 4 -15 10 0 18 -73 60 -96
54 -12 -3 -25 -1 -28 5 -4 6 -2 11 4 11 12 0 3 12 -40 58 -14 15 -34 46 -44
70 -13 27 -25 42 -38 42 -10 0 -18 5 -18 10 0 6 6 10 13 10 8 0 7 3 -3 10 -11
7 -12 12 -3 21 7 7 8 21 2 41 -11 38 -17 45 -24 26z m-130 -67 c5 -8 -20 -41
-31 -41 -2 0 -4 11 -4 25 0 25 23 35 35 16z m65 -2 c0 -5 -4 -7 -10 -4 -5 3
-10 -1 -10 -9 0 -9 -4 -16 -10 -16 -5 0 -10 9 -10 20 0 13 7 20 20 20 11 0 20
-5 20 -11z m60 0 c0 -5 -5 -7 -12 -3 -8 5 -9 2 -5 -9 4 -10 1 -17 -6 -17 -7 0
-13 9 -14 20 -1 14 4 20 18 20 10 0 19 -5 19 -11z m-270 -14 c0 -8 -2 -15 -4
-15 -2 0 -6 7 -10 15 -3 8 -1 15 4 15 6 0 10 -7 10 -15z m85 -15 c3 -5 1 -10
-4 -10 -6 0 -11 5 -11 10 0 6 2 10 4 10 3 0 8 -4 11 -10z m-69 -86 c1 -16 0
-23 -3 -16 -7 19 -23 14 -16 -5 3 -10 3 -15 -1 -12 -10 9 -16 50 -10 61 11 17
29 1 30 -28z m62 7 c-1 -27 -2 -28 -17 -14 -13 13 -13 17 -2 21 11 4 11 6 0
13 -11 7 -10 9 3 9 12 0 16 -8 16 -29z m128 18 c10 -17 -13 -36 -27 -22 -12
12 -4 33 11 33 5 0 12 -5 16 -11z m64 -18 c0 -17 -4 -32 -8 -35 -15 -9 -30 9
-27 34 3 31 2 30 20 30 10 0 15 -10 15 -29z m55 9 c3 -6 -4 -10 -17 -10 -18 0
-20 2 -8 10 19 12 18 12 25 0z m-185 -6 c0 -3 -7 -12 -15 -20 -13 -14 -15 -13
-15 5 0 12 6 21 15 21 8 0 15 -3 15 -6z m70 -26 c0 -4 -9 -8 -20 -8 -11 0 -20
4 -20 8 0 4 9 8 20 8 11 0 20 -4 20 -8z m113 -5 c-7 -2 -19 -2 -25 0 -7 3 -2
5 12 5 14 0 19 -2 13 -5z m-250 -63 c-3 -11 -9 -20 -14 -20 -5 0 -9 9 -9 20 0
11 6 20 14 20 9 0 12 -7 9 -20z m67 -21 c0 -11 -7 -19 -17 -19 -15 0 -16 2 -3
10 10 6 11 10 3 10 -7 0 -13 10 -13 21 0 18 2 19 15 9 8 -7 15 -21 15 -31z
m70 37 c0 -2 -9 -6 -20 -9 -11 -3 -20 -1 -20 4 0 5 9 9 20 9 11 0 20 -2 20 -4z
m60 0 c0 -11 -19 -15 -25 -6 -3 5 1 10 9 10 9 0 16 -2 16 -4z m60 -6 c0 -5 -7
-7 -15 -4 -8 4 -15 8 -15 10 0 2 7 4 15 4 8 0 15 -4 15 -10z m63 3 c-7 -2 -19
-2 -25 0 -7 3 -2 5 12 5 14 0 19 -2 13 -5z m-388 -13 c3 -5 2 -10 -4 -10 -5 0
-13 5 -16 10 -3 6 -2 10 4 10 5 0 13 -4 16 -10z m315 -25 c10 -12 10 -15 -4
-15 -9 0 -16 7 -16 15 0 8 2 15 4 15 2 0 9 -7 16 -15z m65 -5 c3 -5 -1 -10 -9
-10 -9 0 -16 5 -16 10 0 6 4 10 9 10 6 0 13 -4 16 -10z m-115 -70 c0 -23 -4
-30 -20 -30 -11 0 -20 4 -20 10 0 5 8 7 18 4 16 -5 16 -5 0 6 -24 15 -23 40 2
40 16 0 20 -7 20 -30z m55 10 c3 -5 -3 -10 -14 -10 -12 0 -21 5 -21 10 0 6 6
10 14 10 8 0 18 -4 21 -10z m60 0 c3 -5 1 -10 -6 -10 -8 0 -8 -4 1 -15 10 -12
10 -15 -4 -15 -10 0 -16 9 -16 25 0 25 14 33 25 15z m65 0 c0 -5 -7 -10 -15
-10 -8 0 -15 5 -15 10 0 6 7 10 15 10 8 0 15 -4 15 -10z m65 0 c3 -5 -3 -10
-14 -10 -12 0 -21 5 -21 10 0 6 6 10 14 10 8 0 18 -4 21 -10z m-189 -33 c4 -4
-2 -7 -14 -7 -12 0 -22 4 -22 9 0 10 26 9 36 -2z m134 -3 c0 -2 -9 -4 -20 -4
-11 0 -20 4 -20 9 0 5 9 7 20 4 11 -3 20 -7 20 -9z m56 3 c4 -4 -2 -7 -14 -7
-12 0 -22 4 -22 9 0 10 26 9 36 -2z m64 -3 c0 -2 -7 -4 -15 -4 -8 0 -15 4 -15
10 0 5 7 7 15 4 8 -4 15 -8 15 -10z m60 0 c0 -2 -7 -4 -15 -4 -8 0 -15 4 -15
10 0 5 7 7 15 4 8 -4 15 -8 15 -10z m-310 -53 c0 -14 -18 -23 -30 -16 -6 4 -8
11 -5 16 8 12 35 12 35 0z m49 -8 c-11 -13 -11 -17 -1 -20 6 -3 10 -9 6 -14
-9 -16 -24 1 -24 27 0 15 6 24 16 24 14 0 15 -2 3 -17z m71 7 c0 -5 -4 -10
-10 -10 -5 0 -10 5 -10 10 0 6 5 10 10 10 6 0 10 -4 10 -10z m70 0 c0 -5 -7
-10 -15 -10 -8 0 -15 5 -15 10 0 6 7 10 15 10 8 0 15 -4 15 -10z m130 -31 c0
-5 -9 -9 -20 -9 -11 0 -20 4 -20 10 0 5 7 6 17 3 12 -5 14 -3 8 7 -5 9 -4 11
3 6 7 -4 12 -11 12 -17z m-310 1 c0 -11 -30 -21 -41 -14 -16 10 -9 19 16 20
14 1 25 -2 25 -6z m110 -6 c0 -2 -7 -4 -15 -4 -8 0 -15 4 -15 10 0 5 7 7 15 4
8 -4 15 -8 15 -10z m55 -2 c-3 -3 -11 0 -18 7 -9 10 -8 11 6 5 10 -3 15 -9 12
-12z m65 -3 c0 -6 -4 -7 -10 -4 -5 3 -10 11 -10 16 0 6 5 7 10 4 6 -3 10 -11
10 -16z"/>
<path d="M3815 1470 c3 -5 8 -10 11 -10 2 0 4 5 4 10 0 6 -5 10 -11 10 -5 0
-7 -4 -4 -10z"/>
<path d="M3914 1648 c3 -13 6 -26 6 -30 0 -4 10 -8 22 -10 27 -4 35 -25 11
-31 -17 -4 -17 -5 0 -6 19 -1 23 -17 5 -23 -7 -3 -5 -13 8 -32 10 -16 20 -24
22 -17 4 13 32 15 32 2 0 -5 -6 -12 -12 -14 -10 -4 -10 -8 1 -15 7 -5 11 -14
8 -19 -7 -11 49 -46 62 -39 5 3 11 -4 14 -15 3 -12 10 -18 17 -14 5 3 25 -2
43 -13 17 -11 44 -22 59 -26 l28 -6 -1 145 c0 141 -1 146 -22 154 -12 5 -25 7
-29 4 -5 -2 -8 3 -8 11 0 9 -9 16 -20 16 -13 0 -18 -5 -14 -15 4 -8 1 -15 -5
-15 -7 0 -14 7 -17 15 -7 17 -44 21 -44 5 0 -5 -7 -10 -15 -10 -8 0 -15 5 -15
10 0 6 -9 10 -20 10 -13 0 -18 -5 -14 -15 4 -8 1 -15 -5 -15 -7 0 -14 7 -17
15 -4 8 -15 15 -25 15 -12 0 -16 -5 -13 -15 4 -9 0 -15 -10 -15 -9 0 -16 7
-16 15 0 8 -5 15 -11 15 -7 0 -9 -9 -5 -22z m116 -68 c0 -23 -4 -30 -20 -30
-14 0 -20 7 -20 23 0 27 7 37 27 37 8 0 13 -12 13 -30z m50 15 c10 -12 9 -15
-6 -16 -17 -1 -17 -2 -1 -6 23 -6 22 -23 -3 -23 -16 0 -20 7 -20 30 0 33 11
38 30 15z m70 0 c0 -8 -6 -15 -14 -15 -17 0 -28 14 -19 24 12 12 33 6 33 -9z
m70 5 c0 -12 -28 -25 -36 -17 -9 9 6 27 22 27 8 0 14 -5 14 -10z m-75 -40 c3
-5 -1 -10 -9 -10 -8 0 -18 5 -21 10 -3 6 1 10 9 10 8 0 18 -4 21 -10z m65 0
c0 -5 -7 -10 -15 -10 -8 0 -15 5 -15 10 0 6 7 10 15 10 8 0 15 -4 15 -10z
m-133 -68 c-18 -4 -18 -4 0 -18 17 -13 17 -13 -4 -14 -19 0 -23 5 -23 30 0 29
1 30 23 18 20 -11 20 -13 4 -16z m73 2 c0 -2 -7 -4 -15 -4 -8 0 -15 4 -15 10
0 5 7 7 15 4 8 -4 15 -8 15 -10z m55 6 c3 -5 -1 -10 -9 -10 -9 0 -16 5 -16 10
0 6 4 10 9 10 6 0 13 -4 16 -10z m-55 -36 c0 -2 -7 -4 -15 -4 -8 0 -15 4 -15
10 0 5 7 7 15 4 8 -4 15 -8 15 -10z m55 6 c3 -5 -1 -10 -9 -10 -9 0 -16 5 -16
10 0 6 4 10 9 10 6 0 13 -4 16 -10z m-45 -60 c0 -5 -9 -9 -20 -7 -31 5 -36 17
-7 17 15 0 27 -4 27 -10z m40 6 c0 -3 -4 -8 -10 -11 -5 -3 -10 -1 -10 4 0 6 5
11 10 11 6 0 10 -2 10 -4z m10 -48 c0 -13 -23 -5 -28 10 -2 7 2 10 12 6 9 -3
16 -11 16 -16z"/>
<path d="M3630 1249 c-34 -14 -63 -46 -47 -52 7 -3 0 -6 -15 -6 -29 -1 -40
-21 -40 -76 0 -58 10 -76 39 -69 23 6 25 4 20 -15 -7 -30 32 -54 87 -54 52 0
66 7 66 37 0 29 37 43 43 17 3 -12 7 -9 17 12 19 39 4 51 -46 35 -28 -9 -39
-19 -39 -33 -1 -11 -6 -19 -13 -18 -19 4 -14 -15 6 -20 13 -4 11 -5 -5 -6 -21
-1 -29 13 -24 42 0 4 -6 7 -14 7 -9 0 -12 -6 -9 -15 4 -9 0 -15 -7 -15 -11 0
-11 -3 1 -10 12 -8 9 -10 -12 -10 -23 0 -28 4 -28 25 0 17 6 25 17 25 15 0 15
1 0 18 -35 39 -19 89 37 117 13 7 20 18 18 32 -2 17 1 20 17 16 22 -6 25 -43
2 -43 -7 0 3 -11 23 -25 37 -25 80 -33 91 -16 3 5 -6 22 -21 38 -14 15 -23 22
-19 16 4 -9 -1 -13 -14 -13 -16 0 -21 6 -21 25 0 39 -55 56 -110 34z m20 -29
c0 -5 -9 -10 -20 -10 -11 0 -20 5 -20 10 0 6 9 10 20 10 11 0 20 -4 20 -10z
m-7 -27 c-7 -2 -19 -2 -25 0 -7 3 -2 5 12 5 14 0 19 -2 13 -5z m-53 -83 c0
-23 -4 -30 -20 -30 -16 0 -20 7 -20 30 0 23 4 30 20 30 16 0 20 -7 20 -30z"/>
<path d="M3009 641 c-22 -18 -22 -19 -4 -18 16 2 20 -4 20 -28 0 -23 -4 -30
-20 -30 -12 0 -20 7 -20 17 0 9 -3 19 -6 23 -9 9 -21 -44 -13 -57 5 -7 2 -8
-6 -3 -10 6 -12 4 -6 -11 4 -10 9 -27 12 -38 4 -22 33 -56 47 -56 5 0 16 -8
23 -17 13 -17 13 -17 14 0 0 25 40 23 40 -3 0 -11 5 -20 10 -20 6 0 10 9 10
20 0 25 28 26 46 3 8 -12 13 -13 14 -5 0 7 11 17 25 22 23 9 52 56 41 67 -9 9
-25 -8 -20 -21 4 -9 -3 -13 -20 -13 -16 0 -26 5 -26 13 0 12 -3 12 -22 0 -43
-27 -91 -24 -106 7 -10 22 -11 22 -11 -5 -1 -25 -21 -42 -21 -18 0 5 -7 7 -15
4 -11 -5 -15 1 -13 22 2 41 6 44 31 35 18 -7 22 -5 24 13 7 67 11 79 26 88 9
5 17 13 17 18 0 17 -47 11 -71 -9z"/>
<path d="M3130 645 c0 -9 7 -18 16 -22 8 -3 13 -12 10 -19 -3 -7 -1 -16 4 -19
6 -4 10 3 10 15 0 12 9 24 22 29 l22 8 -21 12 c-31 16 -63 14 -63 -4z"/>
<path d="M3214 594 c3 -9 6 -18 6 -20 0 -2 4 -4 9 -4 5 0 7 9 4 20 -3 11 -10
20 -15 20 -6 0 -7 -7 -4 -16z"/>
<path d="M16810 129 c-18 -16 -30 -32 -26 -36 3 -3 16 3 29 15 29 27 53 28 67
2 6 -11 15 -20 20 -20 19 0 10 15 -23 41 l-33 27 -34 -29z"/>
<path d="M17541 143 c-13 -10 -13 -14 -3 -21 7 -5 12 -15 10 -23 -2 -10 10
-15 46 -17 68 -4 96 4 96 28 0 11 -4 20 -10 20 -5 0 -9 5 -7 11 3 16 -112 17
-132 2z"/>
<path d="M17810 130 c0 -25 -3 -29 -22 -26 -14 2 -24 11 -26 24 -4 27 -32 29
-32 3 0 -36 27 -51 94 -51 69 0 86 10 86 52 0 20 -4 26 -15 22 -8 -4 -15 -15
-15 -26 0 -14 -6 -19 -22 -16 -15 2 -22 9 -20 19 1 9 -4 19 -13 23 -11 4 -15
-2 -15 -24z"/>
<path d="M17957 153 c-11 -10 -8 -61 3 -68 6 -4 10 10 10 34 0 42 -2 46 -13
34z"/>
<path d="M18016 127 c-4 -17 -2 -35 2 -39 5 -5 37 -8 72 -6 47 2 66 7 74 21
21 33 -3 50 -76 52 l-66 2 -6 -30z m124 -2 c14 -17 16 -16 -57 -19 -54 -1 -58
21 -5 27 20 2 40 4 43 5 4 1 12 -5 19 -13z"/>
<path d="M18254 152 c-23 -2 -34 -10 -38 -25 -9 -37 11 -48 82 -45 l66 3 0 35
c0 33 -2 34 -40 35 -21 1 -53 -1 -70 -3z"/>
<path d="M18490 146 c-14 -14 -12 -40 2 -54 7 -7 41 -12 81 -12 57 0 67 2 58
14 -7 8 -28 12 -56 11 -36 -2 -45 1 -45 14 0 14 9 16 51 14 32 -1 49 2 47 9
-5 13 -125 17 -138 4z m30 -26 c0 -5 -4 -10 -10 -10 -5 0 -10 5 -10 10 0 6 5
10 10 10 6 0 10 -4 10 -10z"/>
<path d="M18718 152 c-74 -9 -49 -72 29 -72 24 0 53 5 64 10 21 12 26 45 8 56
-13 8 -61 11 -101 6z m78 -22 c25 0 15 -18 -13 -23 -33 -6 -83 2 -83 14 0 9
48 18 68 12 8 -1 20 -3 28 -3z"/>
<path d="M18876 153 c-13 -13 -6 -63 9 -63 8 0 15 7 15 17 0 15 1 15 18 0 23
-21 56 -22 73 -1 12 14 14 14 21 -6 10 -28 28 -16 28 20 0 38 -23 44 -58 15
-28 -23 -30 -24 -48 -7 -23 22 -50 33 -58 25z"/>
<path d="M15820 125 c0 -30 21 -41 82 -44 59 -2 88 12 88 44 0 31 -17 33 -22
3 -2 -15 -10 -23 -23 -23 -13 0 -21 8 -23 23 -2 12 -9 22 -16 22 -9 0 -12 -9
-8 -25 3 -18 0 -25 -11 -25 -29 0 -47 12 -47 31 0 10 -4 19 -10 19 -5 0 -10
-11 -10 -25z"/>
<path d="M16055 120 c-23 -24 -25 -30 -12 -30 10 0 20 7 23 15 4 8 10 15 15
15 5 0 9 -7 9 -15 0 -8 5 -15 10 -15 13 0 13 13 -1 27 -7 7 -7 13 -1 17 6 3
20 -6 31 -20 11 -14 25 -24 31 -22 17 5 -36 58 -58 58 -10 0 -31 -13 -47 -30z"/>
<path d="M16210 125 c0 -14 8 -29 19 -35 25 -13 118 -13 126 0 4 6 -18 10 -59
10 -64 0 -66 1 -66 25 0 14 -4 25 -10 25 -5 0 -10 -11 -10 -25z"/>
<path d="M16400 121 c0 -35 13 -41 85 -41 62 0 87 19 28 22 -21 0 -49 1 -63 2
-14 1 -26 7 -26 14 -1 6 -2 17 -3 22 -3 24 -21 7 -21 -19z"/>
<path d="M16625 140 c28 -7 24 -10 -15 -14 -20 -2 -26 -36 -6 -36 9 0 16 4 16
10 0 5 26 10 57 12 46 2 59 7 61 21 3 15 -5 17 -70 16 -55 -1 -65 -3 -43 -9z
m78 -7 c-7 -2 -19 -2 -25 0 -7 3 -2 5 12 5 14 0 19 -2 13 -5z"/>
<path d="M16980 141 c25 -7 25 -7 3 -13 -22 -6 -33 -38 -13 -38 6 0 10 4 10
10 0 5 28 10 62 12 49 2 62 6 64 21 2 15 -7 17 -74 16 -49 -1 -68 -4 -52 -8z
m93 -8 c-7 -2 -19 -2 -25 0 -7 3 -2 5 12 5 14 0 19 -2 13 -5z"/>
<path d="M17152 121 c-2 -32 5 -37 66 -40 64 -3 78 4 78 39 l0 30 -71 0 -71 0
-2 -29z m106 12 c-15 -2 -42 -2 -60 0 -18 2 -6 4 27 4 33 0 48 -2 33 -4z m-51
-29 c-3 -3 -12 -4 -19 -1 -8 3 -5 6 6 6 11 1 17 -2 13 -5z m56 -1 c-7 -2 -19
-2 -25 0 -7 3 -2 5 12 5 14 0 19 -2 13 -5z"/>
<path d="M17346 128 c-3 -13 -6 -26 -6 -30 0 -14 28 -8 33 6 4 11 14 12 42 6
19 -4 42 -13 49 -19 16 -14 22 -7 24 32 2 27 2 27 -67 27 -63 0 -69 -2 -75
-22z m57 5 c-7 -2 -21 -2 -30 0 -10 3 -4 5 12 5 17 0 24 -2 18 -5z m50 0 c-7
-2 -19 -2 -25 0 -7 3 -2 5 12 5 14 0 19 -2 13 -5z"/>
<path d="M16836 111 c-4 -5 -2 -12 3 -15 5 -4 12 -2 15 3 4 5 2 12 -3 15 -5 4
-12 2 -15 -3z"/>
<path d="M18405 100 c-3 -6 1 -13 10 -16 19 -8 30 0 20 15 -8 14 -22 14 -30 1z"/>
</g>
</svg>
